<svg xmlns="http://www.w3.org/2000/svg" xmlns:xlink="http://www.w3.org/1999/xlink" width="145.559" height="127.333" viewBox="0 0 145.559 127.333"><defs><style>.a{stroke:#fff;stroke-width:4px;fill-rule:evenodd;fill:url(#a);}.b{fill:#ee3b38;}.c{fill:#f05d5e;}.d{fill:#fff;}.e{fill:#8c1a1b;}.f{fill:#cc2829;}.g{fill:#b12524;}.h{fill:#ef4b4c;}.i{fill:#f26c6e;}.j{filter:url(#b);}</style><linearGradient id="a" x1="1" x2="0" y2="1" gradientUnits="objectBoundingBox"><stop offset="0" stop-color="#a1efbd"/><stop offset="1" stop-color="#1cacb3"/></linearGradient><filter id="b" x="0" y="0" width="145.559" height="114.669" filterUnits="userSpaceOnUse"><feOffset dy="3" input="SourceAlpha"/><feGaussianBlur stdDeviation="3" result="c"/><feFlood flood-opacity="0.161"/><feComposite operator="in" in2="c"/><feComposite in="SourceGraphic"/></filter></defs><g transform="translate(11 179.667)"><g class="j" transform="matrix(1, 0, 0, 1, -11, -179.67)"><path class="a" d="M115.282-79a61.775,61.775,0,0,0,8.277-30.89,61.809,61.809,0,0,0-61.78-61.78A61.809,61.809,0,0,0,0-109.887,61.779,61.779,0,0,0,8.277-79Z" transform="translate(11 179.67)"/></g><path class="b" d="M75.419-49.547A5.752,5.752,0,0,1,69.667-55.3a5.752,5.752,0,0,1,5.752-5.752A5.754,5.754,0,0,1,81.174-55.3,5.754,5.754,0,0,1,75.419-49.547ZM133.259-78.01l-20.684-8.726c-.884-18.647-7.531-33.011-40.818-33.011-36.36,0-40.936,17.138-40.936,38.278V-55s42.484,35.107,58.065,5.041c7.9-15.239-6.729-23.1-6.729-23.1S117.561-71.019,133.259-78.01Z" transform="translate(-8.637 -14.55)"/><path class="c" d="M119.208-61.273c-8.328,0-14.89-.442-14.89-.442s24.531-1.531,31.351-9.127l13.669,5.781C142.777-61.961,129.613-61.273,119.208-61.273Z" transform="translate(-29.234 -28.255)"/><path class="d" d="M139.21-69.621l2.327-1.221,14.1,7.049-7.712,1.5Z" transform="translate(-39.012 -28.255)"/><path class="e" d="M132.517-73.883c-3.085,5.922-30.535,10.742-30.535,10.742S126.173-68.984,132.517-73.883Z" transform="translate(-28.579 -27.403)"/><path class="c" d="M108.213-33.653s1.494-12.315-7.255-20.372C113.794-46.3,108.213-33.653,108.213-33.653Z" transform="translate(-28.292 -32.968)"/><path class="d" d="M128.465-105.531c.78.78,1.069,1.758.644,2.183s-1.4.136-2.183-.644-1.068-1.758-.643-2.182S127.685-106.311,128.465-105.531Z" transform="translate(-35.334 -18.299)"/><path class="f" d="M49.36-41.411l-15-9.388S31.2-97.213,41.37-105.159C40.8-64.975,49.36-41.411,49.36-41.411Z" transform="translate(-9.499 -18.638)"/><path class="c" d="M89.726-21.987c-2.209,0-5.228-.774-5.634-4.9,2.121,4.5,7.427,4.618,7.958,4.618h.042A10.028,10.028,0,0,1,89.726-21.987Z" transform="translate(-23.566 -40.574)"/><path class="g" d="M98.581-34.9a7.417,7.417,0,0,0-6.8-4.334c-.194,0-.3.009-.3.009a8,8,0,0,1,2.393-.38C95.781-39.605,98.2-38.808,98.581-34.9Z" transform="translate(-25.636 -37.009)"/><path class="h" d="M110.183-79.774c.087-.97,3.908-30.31-26.091-38.155,1-.031,1.989-.046,2.946-.046,43.585,0,38.774,31.736,38.774,31.736S123.077-83.759,110.183-79.774Zm3.6-30.627a1.806,1.806,0,0,0-1.319.481c-1.042,1.041-.335,3.436,1.578,5.35a6.3,6.3,0,0,0,4.03,2.058,1.81,1.81,0,0,0,1.32-.481c1.041-1.041.335-3.436-1.579-5.35A6.3,6.3,0,0,0,113.782-110.4Z" transform="translate(-23.566 -15.047)"/><path class="i" d="M128.93-99.562a6.3,6.3,0,0,1-4.03-2.058c-1.913-1.914-2.62-4.309-1.578-5.35a1.806,1.806,0,0,1,1.319-.481,6.3,6.3,0,0,1,4.03,2.059c1.914,1.915,2.62,4.309,1.579,5.35A1.81,1.81,0,0,1,128.93-99.562Zm-3.019-7.112a.732.732,0,0,0-.538.2c-.425.425-.137,1.4.643,2.182a2.567,2.567,0,0,0,1.645.841.738.738,0,0,0,.538-.2c.425-.425.136-1.4-.644-2.183A2.568,2.568,0,0,0,125.912-106.675Z" transform="translate(-34.425 -17.996)"/><path class="d" d="M128.571-103.152a2.567,2.567,0,0,1-1.645-.841c-.78-.78-1.068-1.758-.643-2.182a.732.732,0,0,1,.538-.2,2.568,2.568,0,0,1,1.644.841c.78.78,1.069,1.758.644,2.183A.738.738,0,0,1,128.571-103.152Z" transform="translate(-35.334 -18.298)"/></g></svg>