<svg xmlns="http://www.w3.org/2000/svg" xmlns:xlink="http://www.w3.org/1999/xlink" width="124.977" height="136.421" viewBox="0 0 124.977 136.421"><defs><style>.a{stroke:#fff;stroke-linecap:round;stroke-width:4px;fill-rule:evenodd;fill:url(#a);}.b{fill:#f9b5a4;}.c{fill:#e5a493;}.d{fill:#ee3b38;}.e{fill:#d7dbda;}.f{fill:#e52f2e;}.g{fill:#c1c4c4;}.h{fill:#966a33;}.i{fill:#38414a;}.j{fill:#7c5829;}.k{fill:#ab885c;}.l{fill:#61676f;}.m{fill:#977955;}.n{fill:#875f2e;}.o{fill:#272d34;}.p{fill:#191919;}.q{fill:#373737;}.r{fill:#717373;}.s{fill:#656767;}.t{fill:#e4e5e4;}.u{fill:#cb9182;}.v{fill:#999d9d;}.w{fill:#cc2829;}.x{fill:#aeb1b1;}.y{fill:#b68275;}.z{fill:#7f1819;}.aa{fill:#8c1a1b;}.ab{fill:#f05d5e;}.ac{filter:url(#b);}</style><linearGradient id="a" y1="0.5" x2="1" y2="0.5" gradientUnits="objectBoundingBox"><stop offset="0" stop-color="#20a1ea"/><stop offset="1" stop-color="#05cc22"/></linearGradient><filter id="b" x="0" y="11.444" width="124.977" height="124.977" filterUnits="userSpaceOnUse"><feOffset dy="3" input="SourceAlpha"/><feGaussianBlur stdDeviation="3" result="c"/><feFlood flood-opacity="0.161"/><feComposite operator="in" in2="c"/><feComposite in="SourceGraphic"/></filter></defs><g transform="translate(10.924 243.269)"><g class="ac" transform="matrix(1, 0, 0, 1, -10.92, -243.27)"><path class="a" d="M51.786-205.636,88.077-190.6l15.032,36.291L88.077-118.021,51.786-102.989,15.495-118.021.462-154.312,15.495-190.6Z" transform="translate(10.7 225.24)"/></g><path class="b" d="M52.194-140.294s3.642,5.52,5.7,6.605,7.219,1.532,9.433-1.944.08-8.534-1.274-9.784-6.08-1.393-6.08-1.393Z" transform="translate(-24.998 -46.199)"/><path class="c" d="M61.392-130.382a12.01,12.01,0,0,1-1.924-.789c-1.888-1-3.746-4.953-4.033-5.585,1.36-.7,2.883-1.517,4.544-2.433.765.92,1.822,2.172,2.731,3.2A16.142,16.142,0,0,0,61-130.659Z" transform="translate(-26.55 -49.849)"/><path class="d" d="M69.262-130.711l-3.144-2.225s.73-7.551,7.21-11c.674-.13,4.17,2.149,4.17,2.149Z" transform="translate(-31.667 -47.572)"/><path class="e" d="M78.317-141.652c-7.821,3.394-7.931,12.168-7.931,12.168s5.747,4.5,7.071,6.516S83.1-104.5,83.1-104.5l25.369-18.957S79.076-141.369,78.317-141.652Z" transform="translate(-33.711 -48.669)"/><path class="f" d="M72.793-130.912a7.668,7.668,0,0,1,1.408-2.534A14.017,14.017,0,0,0,72.793-130.912Z" transform="translate(-34.864 -52.6)"/><path class="g" d="M82.991-103.186c-.781-5.015-2.527-15.628-3.533-17.163-1.325-2.02-8.477-7.568-8.477-7.568a27.922,27.922,0,0,1,.944-3,14.017,14.017,0,0,1,1.408-2.534s.005-.006.009-.009c1.471,1.629,2.843,3.253,4.117,4.847.659,1.848,1.72,3.724,3.4,4.493,1.391,1.935,2.625,3.786,3.706,5.5l3.308,7.476.077-.035.015.035s.272-.122.727-.334c.2.389.391.752.559,1.086-.294,1.181-.535,2.368-.71,3.542-2.718,1.406-4.46,2.534-4.46,2.534s.079.239.232.677c-.409.141-.864.3-1.324.455Z" transform="translate(-33.996 -52.591)"/><path class="h" d="M106.706-241.354l.038.058c3.064,4.535-4.174,9.255-4.174,9.255-20.639,13.932-59.02,37.992-74.354,45.78l0,0-.2.1c-.215.108-.438.223-.644.325a94.369,94.369,0,0,0-9.8,6.125c-2.72,1.9-10.286,6.845-13.8,9.945a1.352,1.352,0,0,1-.511,1.2c-.718.484-1.913-.037-2.673-1.161s-.794-2.428-.077-2.912a1.39,1.39,0,0,1,1.384.015c4.2-2.112,11.577-7.25,14.343-9.059a94.131,94.131,0,0,0,9.344-6.8c.173-.153.362-.318.544-.477l.164-.147,0,0c12.957-11.311,49.623-37.909,70.263-51.84C96.56-240.943,103.644-245.891,106.706-241.354Z" transform="translate(0 0)"/><path class="i" d="M25.183-130.763c-1.619,1-3.608,2.286-5.937,3.909-2.284,1.59-10.96,7.639-13.837,9.976l-1.922-2.848c3.2-1.778,12.125-7.6,14.427-9.1,2.4-1.57,4.354-2.943,5.892-4.08Z" transform="translate(-1.669 -52.856)"/><path class="j" d="M161.976-225c-4.252,2.87-6.9,6.376-5.919,7.832s5.225.308,9.477-2.561,6.9-6.376,5.917-7.832S166.227-227.87,161.976-225Z" transform="translate(-74.645 -7.22)"/><path class="k" d="M1.2-168.917c-.024,0-.089-.082-.221-.278-.752-1.112-.9-1.808-.188-2.286a1.149,1.149,0,0,1,.654-.193,1.66,1.66,0,0,1,.7.17l.363.54c0,.115-.053.159-.144.159a1.862,1.862,0,0,1-.555-.183,1.82,1.82,0,0,0-.606-.181.272.272,0,0,0-.153.039C.473-170.734,1.311-168.917,1.2-168.917ZM22.659-184.38l-.245-.381c1.462-1.094,2.53-1.957,3.215-2.545.172-.153.36-.314.539-.473l.164-.143c12.822-11.191,48.834-36.938,69.259-50.724,0,0,3.649-2.917,6.832-2.917a3.767,3.767,0,0,1,3.3,1.727l.04.058a5.253,5.253,0,0,0-1.112-.113c-3.566,0-8.239,2.978-8.239,2.978-1.435.968-3.011,2.043-4.705,3.208a24.142,24.142,0,0,0-4.217,2.3,23.237,23.237,0,0,0-4.137,3.5C60.075-211.61,26.4-187.237,26.4-187.237,26.369-187.222,24.836-186.017,22.659-184.38Z" transform="translate(-0.159 -0.817)"/><path class="l" d="M4.189-118.752l-.363-.54c4.15-2.089,11.387-7.2,14.126-8.987,2.514-1.645,4.555-3.091,6.136-4.27l.245.381c-1.72,1.293-3.839,2.857-5.935,4.318C15.706-125.976,7.539-121.033,4.189-118.752Z" transform="translate(-1.832 -53.029)"/><path class="m" d="M159.665-220.678a23.239,23.239,0,0,1,4.137-3.5,24.142,24.142,0,0,1,4.217-2.3C165.469-224.726,162.652-222.768,159.665-220.678Z" transform="translate(-76.471 -8.04)"/><path class="n" d="M112.241-196.172q-.364-.091-.747-.159c14.216-9.41,41.126-27.089,44.66-28.441C153.347-221.09,126.817-204.908,112.241-196.172Z" transform="translate(-53.4 -8.859)"/><path class="o" d="M6.754-115.6l-.405-.5s16.1-11.55,19.628-12.691C20.474-125.292,6.754-115.6,6.754-115.6Z" transform="translate(-3.041 -54.831)"/><path class="p" d="M68.709-141.468l-3.226,2.207a1.413,1.413,0,0,1-1.963-.367l-.1-.144a1.413,1.413,0,0,1,.369-1.963l3.228-2.207a1.411,1.411,0,0,1,1.961.369l.1.144A1.41,1.41,0,0,1,68.709-141.468Z" transform="translate(-30.258 -47.454)"/><path class="q" d="M45.268-148.414c.215,1.455,3.076,4.511,3.076,4.511a3.635,3.635,0,0,0,4.312.617c1.939-1.328,4.561-3.151,5.143-3.717a4.172,4.172,0,0,0,1.472-2.861c.046-1.041-3.969-5.935-5.1-6.087a4.563,4.563,0,0,0-2.607.977,7.939,7.939,0,0,0-2.149.717C48.525-153.758,45.051-149.869,45.268-148.414Z" transform="translate(-21.676 -41.814)"/><path class="r" d="M135.471-24.6s7.779,7.818,9.994,7.949c17.593-4.953,24.5-14.6,24.5-14.6l-3.518-3.518Z" transform="translate(-64.883 -99.862)"/><path class="e" d="M116.257-129.305a32.112,32.112,0,0,0,7.544,5.855,50.726,50.726,0,0,1,20.461,22.208c5.043,10.635,9.348,18.734,8.848,23.106-1.13,4.517-21.285,13.587-24.673,13.266s-10.425-5.446-11.555-6.75-.539-4.121-2.693-7.124a56.765,56.765,0,0,0-5.734-6.428l-3.821-19.5C106.331-116.529,114.894-129.586,116.257-129.305Z" transform="translate(-50.114 -54.581)"/><path class="s" d="M149.657-5.752a4.482,4.482,0,0,1-.717-.124A5.106,5.106,0,0,0,149.657-5.752Z" transform="translate(-71.334 -113.699)"/><path class="g" d="M128.562-61.613a.942.942,0,0,1-.1-.005,5.106,5.106,0,0,1-.718-.124c-2.733-.712-3.337-3.874-9.361-7.407-1.128-1.3-1.212-4.382-3.367-7.385a26.048,26.048,0,0,0-2.174-2.6c8.046-7.394,22.475-10.6,22.464-17.9,2.615,9.03-16.041,11.887-16.479,15.718C117.712-76.842,131.563-61.613,128.562-61.613Zm-23.873-40a39.857,39.857,0,0,1,1.127-5.09,67.3,67.3,0,0,0,6.8-3.659,16.176,16.176,0,0,0,1.665-1.167c.23-.051.464-.108.7-.17,2.309-1.26,2.994-6.147,3.091-10.823,4.54,9.992.6,11.978.758,15.82A50.871,50.871,0,0,0,104.689-101.613Z" transform="translate(-50.14 -57.832)"/><path class="b" d="M66.338-84.924a52.652,52.652,0,0,1-4.887,2.019c-2.541-2.932-10.37-9.93-14.757-18.575-1.055.391-8.65,3.914-7.96,3.66,4.185,11.8,12.331,24.806,14.7,28.467.411.635,1.05.133,1.806.115,3.511-.086,13.666-.487,16.453-2.257C72.208-71.69,66.338-84.924,66.338-84.924Z" transform="translate(-18.53 -67.91)"/><path class="t" d="M39.767-96.021A11.539,11.539,0,0,1,41.978-97.1c.005.018.009.036.015.057-.82.38-1.563.728-2.078.973A.6.6,0,0,1,39.767-96.021Z" transform="translate(-19.042 -70.009)"/><path class="c" d="M55.3-68.291a.92.92,0,0,1-.869-.446C52.062-72.4,44.249-84.215,40.063-96.015h0c.515-.245,1.258-.593,2.078-.973,3.872,14.147,13,20.762,15.539,23.691a7.907,7.907,0,0,0,2.5.378A18.154,18.154,0,0,0,67.6-74.935a41.583,41.583,0,0,0,2.445,5.158c-3.8,1.137-10.9,1.358-13.874,1.431C55.847-68.337,55.554-68.291,55.3-68.291Z" transform="translate(-19.186 -70.061)"/><path class="d" d="M94.039-77.282s-5.3,1.824-6.082,2.085a40.929,40.929,0,0,0,6.733,17.549l6.734-2.779Z" transform="translate(-42.127 -79.499)"/><path class="u" d="M97.974-44.12l-.037-.064C97.95-44.164,97.963-44.142,97.974-44.12Z" transform="translate(-46.907 -95.351)"/><path class="v" d="M94.03-75.357l0,0Z" transform="translate(-45.035 -80.42)"/><path class="w" d="M96.418-59.34c-.155,0-.261-.033-.3-.106a.124.124,0,0,0-.013-.02c-.011-.022-.024-.044-.037-.064-.5-.88-2.036-4.055-2.036-4.055-.106-.886,3.923-1.077,3.743-2.07-.418-2.3-3.341-7.349-3.743-10.116l0,0c.3-.1.816-.276,1.324-.451A125.3,125.3,0,0,0,101.7-61.262C99.945-60.461,97.329-59.34,96.418-59.34Z" transform="translate(-45.034 -80.006)"/><path class="b" d="M91.5-120.073l6.206,14.023s9.824-4.444,11-6.4c.066-.913-10.1-10.37-10.1-10.37Z" transform="translate(-43.824 -57.689)"/><path class="g" d="M104.965-91.747c-.006-.013-.011-.024-.017-.035.278-.132.619-.292,1.006-.477-.006.016-.009.033-.015.049C105.563-92.028,105.233-91.873,104.965-91.747Z" transform="translate(-50.265 -72.326)"/><path class="x" d="M103.572-90.975l-.015-.035c.119-.053.371-.17.725-.334.006.011.011.022.017.035C103.844-91.1,103.572-90.975,103.572-90.975Z" transform="translate(-49.598 -72.765)"/><path class="x" d="M106.851-95.526c.005-.016.009-.033.015-.049a76.672,76.672,0,0,0,6.786-3.609A67.3,67.3,0,0,1,106.851-95.526Z" transform="translate(-51.176 -69.009)"/><path class="c" d="M98.61-101.881l-5.382-12.161a13.843,13.843,0,0,0,11.887,7,16.6,16.6,0,0,0,3.5-.387,10.429,10.429,0,0,1-1.49,1.129,76.673,76.673,0,0,1-6.786,3.609c-.387.184-.728.345-1.006.477C98.981-102.05,98.729-101.934,98.61-101.881Z" transform="translate(-44.651 -61.893)"/><path class="d" d="M102.476-96.039,100.13-100.8s12.3-5.645,15.117-10.491c.661.1,1.234,1.439,1.4,2.381C114.857-102.5,102.476-96.039,102.476-96.039Z" transform="translate(-47.957 -63.209)"/><path class="e" d="M96.129-84.864s4.344,13.162,10.425,22.283c8.862-11.206,33.1-13.291,21.633-26.584C118.673-99.461,96.129-84.864,96.129-84.864Z" transform="translate(-46.041 -72.047)"/><path class="g" d="M110.307-61.117l-3.8-7.1s24.176-7.927,26.652-17.571C143.754-72.928,119.169-72.323,110.307-61.117Z" transform="translate(-51.01 -75.426)"/><path class="d" d="M126.852-143.124c1.933.285,2.269,8.648,1.163,10a1.49,1.49,0,0,1-2.326.062S122.242-142.018,126.852-143.124Z" transform="translate(-59.605 -47.964)"/><path class="b" d="M109.794-140.917s2.089,17.827-2.643,20.408a14,14,0,0,1-16.72-7.254l-2.09-9.775Z" transform="translate(-42.31 -49.021)"/><path class="f" d="M130.257-130.958c-.009-.256-.02-.506-.031-.75.01.244.022.494.031.748Z" transform="translate(-62.371 -53.432)"/><path class="c" d="M94.436-126.186a4.463,4.463,0,0,1-2.08-.557c.469-.794.263-2.437-.115-4.029a25.6,25.6,0,0,0-1.046-3.452,13.059,13.059,0,0,0,2.008.261c.053,0,.1,0,.157,0a6.771,6.771,0,0,0,1.2-.126c6.4-1.137,9.556-3.715,16.68-5.384.08.833.206,2.286.292,4.044.01.244.022.494.031.75.017.685,0,.922-.109.922s-.362-.29-.807-.58a3.636,3.636,0,0,0-2.047-.58,5.5,5.5,0,0,0-1.062.109C101.277-133.116,98.592-126.186,94.436-126.186Z" transform="translate(-43.678 -49.714)"/><path class="d" d="M107.568-155.4l-2.6-2.5s-1.146-16.555-16.227-11.721S79.99-151.5,80.134-150.926c0,0,.82,9.487,6.167,9.426,1.017-1.375-.529-6.019-1.094-7.586a13.059,13.059,0,0,0,2.008.261,6.358,6.358,0,0,0,1.356-.122c7-1.243,10.118-4.21,18.79-5.826A.37.37,0,0,0,107.568-155.4Z" transform="translate(-37.69 -34.853)"/><path class="y" d="M92.242-130.772a33.691,33.691,0,0,0-1.046-3.452,13.059,13.059,0,0,0,2.008.261c.053,0,.1,0,.157,0a6.771,6.771,0,0,0,1.2-.126c6.4-1.137,9.556-3.715,16.68-5.384-7.124,1.669-10.279,4.247-16.68,5.384a6.771,6.771,0,0,1-1.2.126c-.053,0-.1,0-.157,0a13.059,13.059,0,0,1-2.008-.261A25.6,25.6,0,0,1,92.242-130.772Z" transform="translate(-43.678 -49.714)"/><path class="w" d="M86.744-140.854c-5.28,0-4.732-7.723-4.732-7.723-.142-.575-7.151-13.43,7.929-18.264-8.913,9.143-5.121,15.535-4.718,16.11-.889,2.262,1.2,3.054,3.326,3.054a8.382,8.382,0,0,0,2.253-.3c9.815-5.07,17.516-5.667,17.516-5.667a.348.348,0,0,1,.108.25.38.38,0,0,1-.313.374c-.743.139-1.444.287-2.11.442-7.124,1.669-10.279,4.247-16.68,5.384a6.771,6.771,0,0,1-1.2.126c-.053,0-.1,0-.157,0a13.059,13.059,0,0,1-2.008-.261,33.694,33.694,0,0,1,1.046,3.452,4.084,4.084,0,0,1-.2,3.027Z" transform="translate(-38.442 -36.605)"/><path class="q" d="M23.458-131.386a10.737,10.737,0,0,0,.265,3.757s7.31,11.022,7.67,12.011c3.779-.261,8.709-3.889,7.96-3.661-2.509-7.069.133-12.116-1.649-15.984l-2.222,1.282s-3.022-4.637-4.133-4.659a7.217,7.217,0,0,0-2.317.436S23.775-132.731,23.458-131.386Z" transform="translate(-11.189 -50.112)"/><path class="z" d="M87.1-125.935c.237,1.154.162,2.143-.164,2.211s-.783-.814-1.019-1.968-.164-2.144.162-2.211S86.864-127.089,87.1-125.935Z" transform="translate(-41.083 -55.252)"/><path class="aa" d="M109.908-146.345s-5.041-.9-20.9,5.574C105.278-145.443,109.908-146.345,109.908-146.345Z" transform="translate(-42.631 -46.401)"/><path class="ab" d="M118.881-160.619a3.237,3.237,0,0,1-1.962-1.285c-.858-1-1.218-2.1-.8-2.454a.5.5,0,0,1,.336-.112,3.237,3.237,0,0,1,1.962,1.285c.858,1,1.218,2.1.806,2.456A.508.508,0,0,1,118.881-160.619Z" transform="translate(-55.53 -37.741)"/></g></svg>