<svg xmlns="http://www.w3.org/2000/svg" xmlns:xlink="http://www.w3.org/1999/xlink" width="195.126" height="160.751" viewBox="0 0 195.126 160.751"><defs><style>.a{stroke:#fff;stroke-width:4px;fill-rule:evenodd;fill:url(#a);}.b{fill:#6f3819;}.c{fill:#512912;}.d{fill:#df364c;}.e{fill:#2f110f;}.f{fill:#7d3f22;}.g{fill:#8d4927;}.h{fill:#9c522e;}.i{fill:#caccce;}.j{fill:#f1b800;}.k{fill:#1ba9c5;}.l{filter:url(#f);}.m{filter:url(#d);}.n{filter:url(#b);}</style><linearGradient id="a" x1="0.5" x2="0.5" y2="1" gradientUnits="objectBoundingBox"><stop offset="0" stop-color="#7087e0"/><stop offset="1" stop-color="#99ff5e"/></linearGradient><filter id="b" x="61.799" y="19.277" width="133.327" height="133.327" filterUnits="userSpaceOnUse"><feOffset dy="3" input="SourceAlpha"/><feGaussianBlur stdDeviation="3" result="c"/><feFlood flood-opacity="0.161"/><feComposite operator="in" in2="c"/><feComposite in="SourceGraphic"/></filter><filter id="d" x="0" y="64.169" width="155.967" height="70.927" filterUnits="userSpaceOnUse"><feOffset dy="3" input="SourceAlpha"/><feGaussianBlur stdDeviation="3" result="e"/><feFlood flood-opacity="0.651"/><feComposite operator="in" in2="e"/><feComposite in="SourceGraphic"/></filter><filter id="f" x="97.065" y="64.377" width="67.897" height="96.374" filterUnits="userSpaceOnUse"><feOffset dy="3" input="SourceAlpha"/><feGaussianBlur stdDeviation="3" result="g"/><feFlood flood-opacity="0.78"/><feComposite operator="in" in2="g"/><feComposite in="SourceGraphic"/></filter></defs><g transform="translate(9 266.384)"><g class="n" transform="matrix(1, 0, 0, 1, -9, -266.38)"><path class="a" d="M169.023-217.68l39.244,16.255,16.255,39.244-16.255,39.244-39.244,16.255-39.244-16.255-16.255-39.244,16.255-39.244Z" transform="translate(-40.56 245.12)"/></g><path class="b" d="M252.508-172.491s-1.4-9.627,1.138-13.747,8.258-11.854,9.266-16.562,8.576-19.253,9.669-21.186,1.429-13.284,1.093-17.235-3.657-7.862-4.5-8.408L263.5-230.906a13.611,13.611,0,0,0-.582,3.791c-.011,1.058-.011,2.307.039,3.139.11,1.829-9.927,12.895-12.322,16.09l-6.264,26.82Z" transform="translate(-106.684 -7.315)"/><path class="c" d="M243.9-150.453l8.134,8.576a45.038,45.038,0,0,1-.385-5.656c-.916-1.978-3.207-5.5-.859-8.791,3.311-4.646,5.842-7.49,6.351-11.406.442-3.39-1.257-8.166-5.178-11.774-11.982,14.8-8.063,29.053-8.063,29.053" transform="translate(-106.209 -37.928)"/><path class="d" d="M261.883-239.5a16.191,16.191,0,0,1-22.851,1.46,16.191,16.191,0,0,1-1.46-22.851,16.192,16.192,0,0,1,22.851-1.46,16.191,16.191,0,0,1,1.46,22.851" transform="translate(-101.952 0)"/><path class="e" d="M241.967-257.946l1.17,1.669,1.211,1.636,1.242,1.611,1.286,1.575c1.74,2.079,3.555,4.094,5.487,5.993,1.9,1.929,3.918,3.744,6,5.482l1.575,1.286,1.611,1.242,1.635,1.213,1.669,1.171c-.584-.347-1.169-.694-1.747-1.055l-1.708-1.119-1.663-1.187-1.628-1.235a73.26,73.26,0,0,1-6.114-5.425,72.7,72.7,0,0,1-5.429-6.11,56.793,56.793,0,0,1-4.6-6.746" transform="translate(-105.633 -3.684)"/><path class="e" d="M245-231.5a20.951,20.951,0,0,1,1.721-8.721,21.767,21.767,0,0,1,5.171-7.293,21.622,21.622,0,0,1,7.684-4.567,22.307,22.307,0,0,1,4.372-.981,21.239,21.239,0,0,1,4.461-.038,23.529,23.529,0,0,0-8.7,1.4,21.9,21.9,0,0,0-7.462,4.572,22.051,22.051,0,0,0-5.159,7.071,21.178,21.178,0,0,0-1.45,4.168A23.725,23.725,0,0,0,245-231.5" transform="translate(-106.958 -5.756)"/><path class="e" d="M275.78-247.2a15.661,15.661,0,0,1-3.878.334,16.372,16.372,0,0,1-3.861-.647,16.075,16.075,0,0,1-6.7-4,16.182,16.182,0,0,1-4-6.7,16.393,16.393,0,0,1-.651-3.86,15.559,15.559,0,0,1,.332-3.879,17.113,17.113,0,0,0,.706,7.617,16.264,16.264,0,0,0,3.981,6.452,16.16,16.16,0,0,0,6.453,3.986,17.157,17.157,0,0,0,7.618.7" transform="translate(-112.056 -0.19)"/><path class="e" d="M233.608-239.6a15.447,15.447,0,0,1,3.452.017,16.235,16.235,0,0,1,3.379.8,16.079,16.079,0,0,1,5.858,3.708A16.068,16.068,0,0,1,250-229.22a16.381,16.381,0,0,1,.8,3.379,15.379,15.379,0,0,1,.017,3.452,17.384,17.384,0,0,0-1.2-6.689,16.279,16.279,0,0,0-3.7-5.629,16.309,16.309,0,0,0-5.628-3.7,17.432,17.432,0,0,0-6.69-1.191" transform="translate(-101.984 -11.653)"/><path class="f" d="M236.246-149.6c-.126-2.312,2.943-3.657,1.556-6.474a2.455,2.455,0,0,0-.6-.774s-12.553-.287-15.39,9.731a6.746,6.746,0,0,0,1.175,4.033l10.74,5.843s3.532-6.894,4.793-8.66a2.349,2.349,0,0,1,.28-.317c-1.174-.875-2.481-2.121-2.55-3.382" transform="translate(-96.832 -47.818)"/><path class="b" d="M234.989-149.629a5.873,5.873,0,0,1-2.561,1.23,3.175,3.175,0,0,0-2.581,1.715c-.6.962.818,4.648,2.409,5.751a16.568,16.568,0,0,1,2.862,2.627l-13.311-5.729a13.753,13.753,0,0,1,13.181-5.594" transform="translate(-96.832 -50.901)"/><path class="e" d="M242.444-185.251c-.285-.012-.57-.016-.854,0-1.124.065-2.409.2-3.341.326-.422,1.1,2.44,2.387,2.668,3.206.42,1.513-2.964,2.943-3.111,4.267s.778,3.636.232,4.939-.757,2.48-.526,2.816c0,0,4.527-1.262,6.5.445a2.453,2.453,0,0,1,.6.774c1.388,2.817-1.681,4.162-1.555,6.473.069,1.262,1.376,2.508,2.55,3.382,1.8-1.751,8.176-4.342,8.968-11.705.8-7.481-5.818-14.649-12.135-14.923" transform="translate(-103.648 -35.415)"/><path class="g" d="M223.759-169.437c-.232-.336-.021-1.513.525-2.816s-.378-3.616-.231-4.94,3.531-2.754,3.111-4.266a9.351,9.351,0,0,0-2.475-3.029l-.193-.177a26.166,26.166,0,0,0-7.053,1.946c-1.177.379-2.354,3.635-4.2,4.728,0,0-6.516,3.867-6.767,5.171s1.009,1.83.967,2.25a2.682,2.682,0,0,1-.81,2.037c-.694.668-.043,1.913.207,2.332a.852.852,0,0,0-.922.883c0,.805.252.6.238,1.663,0,0,0,0,0,0a4.288,4.288,0,0,0-.019,1.4c.295,1.64.694,2.9,4.131,3.058a21.967,21.967,0,0,0,4.6-.073,12.785,12.785,0,0,0,5.747-2.21c3.436-2.459,2.995-2.743,4.351-2.806,0,0,4,.389,5.262-2.984a3.715,3.715,0,0,0,.218-1.881c-.831-2.881-6.688-.3-6.688-.3" transform="translate(-89.894 -35.675)"/><g class="m" transform="matrix(1, 0, 0, 1, -9, -266.38)"><path class="h" d="M134.285-129.473c-1.1-1.955-1.987-6.179-4.54-8.165a40.359,40.359,0,0,0-7.508-4,9.508,9.508,0,0,0-3.59-.066c-3.215.567-7.125-.379-11.791,3.279S96.2-127.519,90.4-125.815s-11.792,3.657-15.133,5.548-9.4,2.964-14.44,3.847S32.955-105.071,31-104.944s-10.215-.736-14.166,0S.691-104.419.1-103.7s1.387,2.522,5.087,2.774,8.491.42,8.491.42S6.829-96.642,5.4-95.549s-1.345,2.943.294,3.363,8.66-4.246,8.66-4.246-6.81,6.348-4.75,7.4S16.245-94.582,17.548-95s8.365-.042,10.635-1.135,2.817-2.186,6.852-2.1a147.656,147.656,0,0,0,20.43-.8c7.021-.967,23.877-7.693,26.609-7.945,2.1-.194,10.828-2.46,18.159-5.482a49.929,49.929,0,0,0,6.055-2.918s8.576,5.71,12.3,7.35,9.458.82,13.872.756,5.171-1.513,5.486-5.044-2.554-15.2-3.657-17.151" transform="translate(9 212.02)"/></g><path class="i" d="M173.982-3.627s-.042.525.9.82,1.065.215,1.065.215.517-2.844-.53-2.636a3.005,3.005,0,0,0-1.438,1.6" transform="translate(-75.953 -114.005)"/><path class="i" d="M187.158-17.064l-.335.128.106-.039.228-.089" transform="translate(-81.559 -108.843)"/><path class="i" d="M184.673-16.176q.34-.146.682-.285-.343.139-.682.285" transform="translate(-80.621 -109.107)"/><path class="i" d="M188.812-17.825q-.46.158-.917.327l0,.007c.3-.113.607-.229.913-.334" transform="translate(-82.027 -108.511)"/><path class="i" d="M186.613-16.776l-.073.029.041-.015.033-.014" transform="translate(-81.436 -108.969)"/><path class="i" d="M182.015-14.974q-.323.154-.642.315l.032-.015q.3-.152.61-.3" transform="translate(-79.18 -109.756)"/><path class="i" d="M179.987-14.266q-.709.362-1.4.759.691-.4,1.4-.758Z" transform="translate(-77.963 -110.065)"/><path class="i" d="M175.9-10.387l.259-.594.834-1.886q-.906.523-1.777,1.109l-.162.251a43.336,43.336,0,0,1,1.216,4.763v0s.068-.475,1.113-1.5c-.432-.766-1.048-1.651-1.058-1.662Z" transform="translate(-76.422 -110.676)"/><path class="i" d="M184.168-15.752l-.052.023.01,0,.042-.019" transform="translate(-80.378 -109.416)"/><path class="i" d="M183.433-15.564c-.154.069-.307.138-.459.209.129-.06.259-.118.389-.176l.069-.033" transform="translate(-79.879 -109.498)"/><path class="i" d="M181.361-14.443l-.032.015-.057.029.09-.044" transform="translate(-79.136 -109.988)"/><path class="i" d="M186.837-16.906c-.035.014-.072.025-.106.039l-.086.034-.033.014.225-.087" transform="translate(-81.467 -108.912)"/><path class="i" d="M183.928-15.718l-.008,0-.185.083-.069.033.263-.12" transform="translate(-80.181 -109.431)"/><path class="i" d="M182.689-15.505c-.13.058-.26.116-.389.176l-.26.123q-.306.147-.61.3.624-.313,1.259-.6" transform="translate(-79.205 -109.524)"/><path class="i" d="M185.53-16.752l-.041.015-.37.148q-.341.139-.682.285l-.262.114-.042.019q.693-.306,1.4-.583" transform="translate(-80.385 -108.979)"/><path class="i" d="M187.514-17.238l0-.007-.269.1-.229.089c.166-.064.335-.122.5-.184" transform="translate(-81.642 -108.764)"/><path class="i" d="M181.084-14.276l-.012.006h0l.012-.007" transform="translate(-79.049 -110.06)"/><path class="f" d="M213.639-141.478a14.59,14.59,0,0,0,4.371,3c2.355.925,4.533,1.765,5,2.485a16.924,16.924,0,0,0,2.016,2.1,7.321,7.321,0,0,0-.42,5.465c1.051,2.648,2.565,5.128,2.186,8.618s-3.321,9.038-6.138,10.593-2.858,1.387-4.54,1.429a25.479,25.479,0,0,1-5.654-.084s2.921,2.48,10.824,1.808,9.248-.819,10.089-3.814-1.345-10.38-2.186-13.834-.5-9.76-3.111-12.282-7.651-4.155-12.443-5.482" transform="translate(-91.881 -54.529)"/><g class="l" transform="matrix(1, 0, 0, 1, -9, -266.38)"><path class="j" d="M221.031-125.276s-1.235-7.251-3.439-7.914a7.758,7.758,0,0,0-2.9-.536s-3.638-3.05-5.012-3.909c0,0-4.54-3.13-7.693-3.142a22.453,22.453,0,0,1-4.545-.7,40.307,40.307,0,0,1,7.508,4c2.554,1.986,3.436,6.211,4.54,8.165s3.973,13.62,3.657,17.151-1.072,4.981-5.486,5.044-10.152.883-13.872-.757-12.3-7.349-12.3-7.349a50.118,50.118,0,0,1-6.055,2.918c-.224,2.136-.5,4.625-.692,5.881-.378,2.459-2.333,12.123-2.459,17.663s.441,24.647.945,25.656c0,0,4.982-5.171,9.837-6.558s11.665-2.4,16.206-1.513,7.945,0,9.837,1.135,2.207,1.072,2.081-.252-.946-11.539,1.324-15.827,7.63-10.026,8.512-14.25,1.072-14.187,1.135-16.836a48.467,48.467,0,0,0-1.135-8.071" transform="translate(-66.21 211.86)"/></g><path class="k" d="M197.145-86.12c-.192-.069-.384-.14-.567-.22a97.568,97.568,0,0,1-9.942-5.813,12.608,12.608,0,0,0-.659,2.66c-.378,2.648-1.514,6.558-2.9,8.323s-3.783,4.414-2.649,8.576,1.766,7.062.883,9.711-2.775,3.531-1.766,6.684c.616,1.925-.178,7.889-.89,12.245.653-.536,1.4-1.108,2.205-1.66,1.116-5.633,2.939-13.877,4.612-17.143,2.649-5.171,6.432-9.206,7.567-12.738,1-3.106,3.653-6.505,4.106-10.625" transform="translate(-77.994 -76.062)"/><path class="b" d="M286.275-223.832s.483-3.195.862-4.856-1.282-4.225-1.409-4.96.883-3.006.672-3.132-.693-.672-1.828.295-.84,3.909-1.261,5.885a42.728,42.728,0,0,1-1.765,5.3s-.692,3.862,4.729,1.471" transform="translate(-122.899 -12.807)"/><path class="f" d="M196.587-106.234a26.137,26.137,0,0,1-4.918,2.775c-.757.5-3.027,2.487-3.027,2.487s4.6,3.059,8.518,5.342a7.051,7.051,0,0,0,1.192-2.218c.189-1.45-.567-4.6,1.135-6.684s8.576-4.162,8.576-4.162c-2.712-.567-9.143.63-11.476,2.459" transform="translate(-82.354 -68.78)"/><path class="e" d="M223.339-177.04c-.4-.21-1.886-.257-2.162.247a4.374,4.374,0,0,1-1.118,1.062,4.883,4.883,0,0,1-1.144,1c.867-.41.867.489.831.988-.035.478-.252.777.252,1.219s1.114-.126,1.114-.126-.756.021-.8-.21.147-.736.883-.673a2.844,2.844,0,0,1,1.471.883,2.707,2.707,0,0,0-.651-1.219,1.605,1.605,0,0,0-1.219-.42,3.55,3.55,0,0,1-.251-.874c0-.264,1.175-.828,1.617-1.007s.442-.557,1.409.2a2.424,2.424,0,0,0,1.534.694,11.429,11.429,0,0,0-1.765-1.766" transform="translate(-95.569 -38.939)"/><path class="e" d="M211.326-154.1a15.155,15.155,0,0,1-3.147-.788c-.917-.37-.915-1.442-1.458-.756a1.52,1.52,0,0,0-.07.235,2.4,2.4,0,0,0,.336,1.54.7.7,0,0,0,.53.356,8.18,8.18,0,0,0,3.81-.587" transform="translate(-90.204 -48.246)"/><path class="e" d="M207.031-149.241a1.9,1.9,0,0,1-1.049-.294h0a3.074,3.074,0,0,1,.2,1.218s0,0,0,0a5.09,5.09,0,0,0-.065.86c.047-.1.091-.393.17-.669.119-.416,1.258-1.189.743-1.12" transform="translate(-89.923 -51.012)"/><path class="h" d="M206.852-151.894a.866.866,0,0,0-.9.674c.242-.007.577-.051.958-.082a5.72,5.72,0,0,0,1.734-.437s-1.45.168-1.792-.156" transform="translate(-89.91 -49.982)"/><path class="e" d="M209.192-162.833c-.765.032-.882.836-1.411.851a.718.718,0,0,1-.682-.319c.283.623.885.969.856,1.262a3.241,3.241,0,0,1-.3,1.354l0,0c.481.241.74-1.573.961-1.589s.2.166.851.087.2-.93.513-.891a.614.614,0,0,1,.449.331c.1-.347-.481-1.12-1.246-1.088" transform="translate(-90.411 -45.206)"/><path class="e" d="M239.609-154.85c-.365.393.154.909.636.971s.991.029,1.014-.69-.518-1.195-.157-1.318.348.692.843.6-.133-.479.2-1.151.93-.385,1.263.033-.5,1.981-.161,1.836a2.511,2.511,0,0,0,.734-2.157c-.109-.981-.68-1.129-1.278-.967a2.043,2.043,0,0,0-1.1.584,3.009,3.009,0,0,0-.158.687s-.282-.336-.524-.026a3.281,3.281,0,0,0-.418,1.443c-.011.35-.589-.168-.89.156" transform="translate(-104.55 -47.425)"/></g></svg>