<svg xmlns="http://www.w3.org/2000/svg" width="275.172" height="282.289" viewBox="0 0 275.172 282.289"><g transform="translate(-53.008 -97)"><g transform="translate(141 97)"><path d="M15.284,51.627c0-.075-.008-.148-.012-.222A17.992,17.992,0,0,1,0,33.62V17.988A17.991,17.991,0,0,1,34.394,10.6a16.328,16.328,0,0,1,.783,2.053c2.778,8.734,7.234,35.089,3.291,38.975Z" transform="translate(40.773 21.772)" fill="#191847"/><g transform="translate(42.919 24.87)"><path d="M0,58.994,6.642,27.873C2.938,23.5.431,18.144.849,12.143,2.057-5.152,26-1.347,30.663,7.381s4.105,30.87-1.915,32.43c-2.4.622-7.516-.9-12.722-4.056l3.268,23.239Z" transform="translate(0 0)" fill="#b28b67"/></g><path d="M23.28,50.429H.095a42.362,42.362,0,0,1,.13-7.316A20.258,20.258,0,0,1,1.39,38.135a18.849,18.849,0,0,1,4.087-6.1c2.857-3.177,5.81-6.463,5.81-16.8.2-.2.4-.4.6-.592.57-.569,1.107-1.1,1.645-1.588l-.026-.627a32.578,32.578,0,0,1,4.169-6.218A21.392,21.392,0,0,1,22.49,1.943,11.824,11.824,0,0,1,28.784,0c4.122,0,7.35.86,9.868,2.63a19.3,19.3,0,0,1,4.794,5.4l.006.008A9.467,9.467,0,0,1,39.8,13.141a33.6,33.6,0,0,1-6,3.276,52.377,52.377,0,0,0-5.842,3.025,4.419,4.419,0,1,0-2.771,7.879c.066,0,.134,0,.2,0a90.058,90.058,0,0,1,.267,14.175c-.234,3.242-.836,7.424-2.371,8.938Z" transform="translate(29.58 22.579)" fill="#191847"/></g><g transform="translate(53.008 153.645)"><g transform="translate(97.992 129.355)"><path d="M62,65H16A16,16,0,0,1,0,49V16A16,16,0,0,1,16,0H62A16,16,0,0,1,78,16V49A16,16,0,0,1,62,65ZM18.857,14.677a4,4,0,0,0-4,4V46.322a4,4,0,0,0,4,4H59.143a4.005,4.005,0,0,0,4-4V18.678a4.005,4.005,0,0,0-4-4Z" fill="#c5cfd6"/></g><path d="M45.2,79.557Q24.994,55,17.857,43.147C9.71,29.616,3.042,17.576.938,12.977-4.08,2.009,12.49-3.126,16.24,1.989Q24.754,13.6,52.6,75.081Z" transform="translate(196.73 136.573)" fill="#b28b67"/><path d="M25.8,78.2.728,15.392C-4.634,3.944,21.258-3.582,25.2,1.746c8.946,12.1,30.207,59.815,32.872,63.419Z" transform="translate(188.532 133.174)" fill="#2f3676"/><g transform="translate(191.559 142.619) rotate(39)"><path d="M1.149,71.329C.482,62.747-.725,33.033.583,19.276c.376-3.953.771-7.776,1.168-11.361C2.933-2.744,22.709-2.452,21.115,7.674,17.146,32.894,10.181,68.242,9.68,71.3,8.979,75.576,1.568,76.723,1.149,71.329Z" transform="translate(0 0)" fill="#b28b67"/></g><g transform="translate(151.657 183.844) rotate(30)"><path d="M2.933,3.388a1.314,1.314,0,0,0-1.682.876L0,8.635a41.408,41.408,0,0,0,.591,5.131H37.576s1.442-4.724-1.664-5.1-5.161-.68-5.161-.68L13.561.388a.658.658,0,0,0-.873.346l-1.1,2.657a14.959,14.959,0,0,1-4.673,1.33Z" transform="translate(0.656 12.234)" fill="#5c63ab"/></g><g transform="translate(234.992 198.355)"><path d="M3.056,3.528A1.367,1.367,0,0,0,1.3,4.445L0,9.018a43.487,43.487,0,0,0,.616,5.368H39.148s1.5-4.942-1.734-5.336-5.377-.712-5.377-.712L14.128.391a.684.684,0,0,0-.91.362L12.067,3.532A15.538,15.538,0,0,1,7.2,4.924Z" transform="translate(0.683 12.813)" fill="#2f3676"/></g><path d="M65.38,44.843s-31.252-5.067-41.866-6.93C3.344,34.373-2.538,23.57.94,0H38.1c7.377,2.12,61.646,26.226,61.646,26.226,6.509,3.216,5.3,12.7,4.107,15.823-.073.191-32.921,56.146-32.921,56.146L40.534,78.92l24.9-31.806S66.423,45.137,65.38,44.843Z" transform="translate(114.859 106.86)" fill="#5c63ab"/><g transform="translate(25.693)" opacity="0.5"><path d="M23.941,8.606C25.484,6.406,28.346.82,30.517.034c1.4-.506.991,4.73,1.008,5.729a83.694,83.694,0,0,1-.773,11.532c-.837,6.908-3.573,13.061-7.325,18.94-1.931,3.025-4.2,6.088-7.333,7.975-1.444.869-3.181,1.015-4.607,1.764-1.661.872-.756.167-1.5,1.9-1.039,2.4-1.372,5.5-1.853,8.066C5.921,67.707.576,129.921,1.5,141.892c.082,1.061-1.4,1.315-1.471.019-.393-6.868,3-54.432,4.718-69.986S8.2,42.629,9.937,37.248c2.11-6.529,5.92-14.38,9.092-20.469A72.4,72.4,0,0,1,23.941,8.606Z" transform="translate(41.479 32.302)" fill="#69a1ac"/><path d="M36.859.836c4.014-2.947,8.359,2.615,4.726,5.562A3.638,3.638,0,0,1,36.3,6.09c-.767.935-1.485,1.913-2.175,2.739-2.1,2.517-4.089,5.093-5.988,7.73-3.944,5.478-7.325,11.265-10.859,16.946C13.786,39.112,10.326,44.748,7.165,50.5,4.487,55.368.917,61.1,0,66.439c1.391-11.325,6.67-22.211,12.957-32.2C19.192,24.342,26.348,13.527,36,5.713A3.419,3.419,0,0,1,36.859.836Z" transform="translate(40.01 116.36)" fill="#c1dee2"/><path d="M.7.011C2.948.451,6.619,5.532,8.47,7.468a72.513,72.513,0,0,1,6.078,7.322A123.839,123.839,0,0,1,25.3,32.331,163.046,163.046,0,0,1,37.269,63.472,128.461,128.461,0,0,1,40.9,83.9c.13,1.293,1.485,11.264-.468,11.533-1.757.242-1.215-7.571-1.3-8.634A138.033,138.033,0,0,0,31.31,51.839c-.87-2.462-1.678-5.477-3.069-7.693-1-1.6-.007-1.039-1.768-1.643-1.512-.519-3.234-.392-4.782-1.027-3.363-1.379-6.055-4.056-8.415-6.749-4.587-5.233-8.221-10.894-10.116-17.6A84.738,84.738,0,0,1,.609,5.837C.47,4.846-.744-.272.7.011Z" transform="translate(0 89.564)" fill="#69a1ac"/><path d="M5.161,5.035a203.548,203.548,0,0,1,19.9,47.117c2.72,9.891,4.622,20.041,6.512,30.118,2.926,15.6,5.694,31.2,6.482,47.083.792,15.972,2.359,34.393-2.871,49.776,2.612-15.618.125-32.242-.315-47.957-.21-7.5-.82-14.931-1.62-22.389-.776-7.235-2.045-14.435-3.226-21.613q-.863-5.244-1.795-10.475c-.184-1.041-.261-4.129-.921-4.84s-4.055-1.007-5.119-1.533a27.484,27.484,0,0,1-5.944-4.148A47.481,47.481,0,0,1,7.5,55.233C2.067,46.164-.106,35.1,0,24.591c.021-2.039,3.3-24,1.984-24.3Q2.107.149,2.213,0,3.709,2.5,5.161,5.035Z" transform="translate(4.405)" fill="#89c5cc"/><path d="M60.509,1.427c.131-.188.98-1.5.552-1.414.871-.17-1.2,1.444.972.454C61,1.44,61.6,2.7,61.612,4.014a31.771,31.771,0,0,1-.734,6.318,43.322,43.322,0,0,1-2.945,9.548A42.787,42.787,0,0,1,43.871,37.137C40.9,39.2,37.993,39.9,34.607,40.843c-2.139.6-2.308,1.7-3.444,3.78-2.363,4.323-4.685,8.629-6.769,13.1-2.489,5.336-4.9,10.677-7.184,16.107C9.533,92.118,3.284,111.066,0,130.675-.079,119.12,2.595,107.218,5.967,96.2a205.739,205.739,0,0,1,9.065-23.418,29.631,29.631,0,0,0,2.43-6.29c.246-1.435-.506-2.815-.85-4.327a45.276,45.276,0,0,1-.067-18.4c1.3-6.526,5.054-9.555,11.406-10.479,2.323-.338,5.276-.214,7.406-1.2,2.321-1.079,3.278-4.624,4.6-6.9A93.846,93.846,0,0,1,52.547,8.055a40.848,40.848,0,0,1,4.307-3.962C57.818,3.323,59.853,2.375,60.509,1.427Z" transform="translate(40.377 56.528)" fill="#89c5cc"/><path d="M.81,2.1A1.835,1.835,0,0,1,2.626,0H25.17a1.835,1.835,0,0,1,1.816,2.1L25.244,13.918a7.341,7.341,0,0,1-7.263,6.27H9.816a7.341,7.341,0,0,1-7.263-6.27Z" transform="translate(27.03 174.723)" fill="#c1dee2"/></g><g transform="translate(0 145.906)"><path d="M0,0C0,11.9.939,21.546,13.543,21.546S27.087,11.9,27.087,0" transform="translate(8.619 27.087)" fill="#f2f2f2"/><path d="M25.912,19.662A24.913,24.913,0,0,0,24.674,22.1a33.4,33.4,0,0,1,.339-5.158c.44-2.979,1.111-5.943,1.742-8.9C27.208,5.917,27.179,2.1,28.9.4c.472-.366.586.352.586.664.006.066,0-1.273-.459-1.039-2.723,1.406-3.6,5.828-4.477,8.042a42.6,42.6,0,0,0-2.8,9.9,22.168,22.168,0,0,0-.188,2.546c-.093-.227-.179-.455-.276-.681a45.961,45.961,0,0,0-6.337-10.6C14.3,8.415,6.112.363,5.471,1.6a.85.85,0,0,0,.4.446c.012.013.012.006.005-.014C6.355,2.8,7.722,4,8.148,4.684A51.4,51.4,0,0,1,10.9,10c1.788,3.767,3.447,7.572,5.055,11.386.374.888.765,1.771,1.163,2.652C13.012,18.114,7.537,12.74,0,9.664c2.574,1.31,4.262,3.773,6,5.66,2.1,2.275,4.305,4.49,6.406,6.763,2.478,2.681,5.393,5.5,7.776,8.472a89.352,89.352,0,0,1,5.936,14.793c-.567-1.76-.044-4.193-.142-6.04a40.806,40.806,0,0,0-.484-4.384,9,9,0,0,1,.656,1.925c-.1-1.025-.223-2.044-.352-3.057.33-.949.653-1.834.872-2.563a65.848,65.848,0,0,1,4.272-11,98.194,98.194,0,0,1,5.712-9.759c.98-1.479,1.974-2.953,2.962-4.429A23.327,23.327,0,0,1,41.776,2.6C35.958,7.923,29.6,13.28,25.912,19.662" transform="translate(0)" fill="#f2f2f2"/></g></g><g transform="translate(159.475 160.463)"><path d="M24.148,92.641,0,82.606,5.391,69.252,29.777,87.2a65.56,65.56,0,0,1,16.578,6.676c1.048.957,2.315,2.9-2.032,2.56s-8.935-.492-9.534.995,2.03,3.263.818,5.268a.576.576,0,0,1-.529.286Q32.933,102.982,24.148,92.641ZM7.951,18.054,36.929,9.336a65.612,65.612,0,0,1,15.3-9.25c1.393-.263,3.7-.11.817,3.168s-5.769,6.855-4.946,8.229,3.823.339,4.691,2.515q.868,2.177-14.908,3.119L15.35,30.4Z" transform="translate(77.31 0)" fill="#b28b67"/><path d="M10.314,0c19.25,20.532,42.722,33.935,74.731,45.83l-7.1,14.233c-33.021-3.137-50.675-5.637-64.524-26.2C9.945,28.706,3.725,10.953,0,1.734Z" transform="matrix(0.966, 0.259, -0.259, 0.966, 34.861, 18.254)" fill="#e87613"/><path d="M0,87.338H58.866s-20-61.13-20.435-83.912c-.015-.774-1.442-2.139-2.073-1.96C29.433,3.426,21.537,0,21.537,0,7.582,22.492,2.756,50.185,0,87.338Z" transform="translate(7.699 16.26)" fill="#f2f2f2"/><path d="M1.087,113.085C-3.9,79.511,9.2,32.961,21.35,9.482A4.142,4.142,0,0,1,25.127,6.9h9.121l.012.036c3.073.025,6.493.148,10.225.271,16.759.553,39.775,1.105,65.6-7.2L113.2,15.608C89.337,30.988,65.175,42.9,44,41.21c9.193,39.52,8.769,71.874-11.528,71.874Z" transform="translate(0 9.365)" fill="#ff9b21"/></g></g></svg>