<svg xmlns="http://www.w3.org/2000/svg" xmlns:xlink="http://www.w3.org/1999/xlink" width="275" height="280.75" viewBox="0 0 275 280.75"><defs><filter id="a" x="0" y="2.525" width="192.341" height="278.225" filterUnits="userSpaceOnUse"><feOffset dx="-10" dy="22" input="SourceAlpha"/><feGaussianBlur stdDeviation="17" result="b"/><feFlood flood-opacity="0.102"/><feComposite operator="in" in2="b"/><feComposite in="SourceGraphic"/></filter></defs><g transform="translate(-24 -102)"><g transform="translate(131 102)" opacity="0.2"><ellipse cx="84" cy="84.5" rx="84" ry="84.5" transform="translate(0 23)" fill="#89c5cc"/><ellipse cx="14.5" cy="15" rx="14.5" ry="15" transform="translate(129 220)" fill="#222439"/><path d="M17.935,0,35.871,17.935,17.935,35.871,0,17.935Z" transform="translate(52.342)" fill="#5c63ab"/><path d="M8.785,0l8.785,8.785L8.785,17.569,0,8.785Z" transform="translate(18.713 217.56)" fill="#5c63ab"/><path d="M4.392,0,8.785,4.392,4.392,8.785,0,4.392Z" transform="translate(143.117 23.06)" fill="#2026a2"/></g><g transform="matrix(1, 0, 0, 1, 24, 102)" filter="url(#a)"><rect width="84.341" height="173.387" rx="5" transform="matrix(1, -0.03, 0.03, 1, 61, 34.47)" fill="#f2f2f2"/></g><path d="M72.7,165.766H4a4,4,0,0,1-4-4V4A4,4,0,0,1,4,0H17.808A6,6,0,0,0,23.8,5.989H53.14A6,6,0,0,0,59.127,0H72.7a4,4,0,0,1,4,4V161.765A4.005,4.005,0,0,1,72.7,165.766Z" transform="matrix(0.999, -0.035, 0.035, 0.999, 88.823, 140.034)" fill="#004361"/><g transform="translate(97.8 103.73)"><g transform="translate(57.655 17.642)"><path d="M0,34,3.738,16.064A12.837,12.837,0,0,1,.478,7c.68-9.967,14.156-7.775,16.777-2.744s2.31,17.791-1.078,18.69c-1.351.359-4.23-.52-7.159-2.338L10.857,34Z" transform="translate(-0.455 -0.372)" fill="#b28b67"/></g><path d="M68.817,16.2c-1.476-.242-5.451-.409-6.184-.409-.468,0-.976.107-1.253-.323-.227-.353-.144-.949-.212-1.358-.079-.475-.191-.944-.3-1.412a14.369,14.369,0,0,0-1.49-3.788,11.635,11.635,0,0,0-5.513-5,17.687,17.687,0,0,0-8.37-1.152,36.718,36.718,0,0,0-8.56,2.171,17.923,17.923,0,0,1-8.361.806c-2.848-.438-5-1.983-7.4-3.45A13.78,13.78,0,0,0,12.99.032,15.739,15.739,0,0,0,5.53,2.863,12.178,12.178,0,0,0,.72,8.326,7.486,7.486,0,0,0,1.4,15.94c2.508,3.271,7.164,4.117,11.038,4.033a21.071,21.071,0,0,0,6.557-1.2c2.821-.993,5.259-2.677,7.9-4.043a20.542,20.542,0,0,1,3.861-1.547,4.3,4.3,0,0,1,3.764.25A17.771,17.771,0,0,0,38.31,15.6a12.219,12.219,0,0,0,4.277.769c2.838-.022,5.635-.907,8.391-1.5a17.206,17.206,0,0,1,6.943-.5c.956.194,2.353.594,2.7,1.589-5.812,1.054-8.095,8.25-6.456,13.532.884,2.851,6.2,6.183,8.267,4.685,1.309-.949.514-2.2,0-3.019-.985-1.576-1.322-3.6.5-4.7,1.573-.946,3.226,1.3,3.257,1.3a20.209,20.209,0,0,0,6.74-5.233c2.538.151,2.923-1.525,2.317-2.895S70.856,16.538,68.817,16.2Z" transform="translate(0 0)" fill="#05142a"/><g transform="translate(5.2 77.303)"><path d="M48.668.024c-8.934,7.283-5.567,71.1-6.163,71.9C42.107,72.464.04,81.065.04,81.065L1.248,86s49.2-2.464,52.073-6.117C57.43,74.658,63.5,21.416,63.5,21.416Z" transform="matrix(0.574, -0.819, 0.819, 0.574, 15.499, 52.82)" fill="#b28b67"/><path d="M.039,79.12l2.128,7.954c24.45,2.8,40.571-.687,46.247-6.084s10.2-58.311,10.2-58.311L42.752.021c-21.267,16.043-8.62,68.524-9.164,69.725S20.149,71.9.039,79.12Z" transform="matrix(0.574, -0.819, 0.819, 0.574, 18.34, 48.004)" fill="#2f3676"/><g transform="translate(83.146 87.041) rotate(20)"><path d="M2.2,2.565a.99.99,0,0,0-1.262.641L0,6.4a29.519,29.519,0,0,0,.443,3.75H28.182S29.263,6.7,26.934,6.422s-3.87-.5-3.87-.5L10.17.373a.5.5,0,0,0-.655.253L8.687,2.568a11.439,11.439,0,0,1-3.5.972Z" transform="translate(0.492 8.851)" fill="#e4e4e4"/></g><path d="M47.882,0,23.734,58.031,0,107.091H5.6L66.863,0Z" transform="translate(1.785 12.967)" fill="#997659"/><g transform="translate(0 105.967)"><path d="M2.088,2.528a.933.933,0,0,0-1.2.63L0,6.3A30.039,30.039,0,0,0,.421,9.987H26.741s1.026-3.4-1.185-3.666-3.673-.489-3.673-.489L9.651.373a.466.466,0,0,0-.621.249L8.243,2.531a10.569,10.569,0,0,1-3.326.956Z" transform="translate(0.467 8.699)" fill="#e4e4e4"/></g><path d="M0,96.9l12.442,2.336C22.063,85.077,62.324,27.025,66.739,0h-27.7C24.3,19.536,9.17,82.507,0,96.9Z" transform="translate(3.928 12.967)" fill="#5c63ab"/></g><g transform="translate(5.2 41.27)"><path d="M14.835,54.313c-.636-1.071-1.36-2.142-3.557-1.6-3.921.975-7.246,3.476-10.9.1-.449-.415-.779-1.711.754-2.376,3.819-1.657,9.46-4.759,10.375-5.963q1.872-2.464,11.6-28.13l9.563,1.9Q18.241,45.16,17.194,46.775c-1.57,2.422-.1,6.861.436,9.2a2.943,2.943,0,0,1-.666.083C15.814,56.056,15.353,55.185,14.835,54.313ZM91.467,14.3l16.909-7.433A40.078,40.078,0,0,1,116.957.132c.825-.263,2.234-.342.73,1.856S114.7,6.566,115.3,7.336s2.341-.08,3.029,1.173q.688,1.253-8.8,3L96.866,21.226Z" transform="translate(0.933 21.955)" fill="#b28b67"/><path d="M0,1.042,3.959,0c9.5,7.736,14.86,27.85,20.932,30.043,5.741,2.074,13.345-1.084,22.349-5.238l3.4,6.118C43,40.809,25.68,50.111,18,46.338,5.722,40.3.826,15.347,0,1.042Z" transform="matrix(0.996, 0.087, -0.087, 0.996, 59.682, 1.453)" fill="#db2721"/><path d="M0,53.254H35.705c1.632,0,1.324-2.358,1.088-3.548C34.072,35.971,23.446,21.167,23.446,1.617L13.147,0C4.628,13.714,1.682,30.6,0,53.254Z" transform="translate(42)" fill="#dde3e9"/><path d="M0,66.267Q7.231,21.374,41.882,0H45.96s13.869,47.324,7.647,63.063H21.467a117.555,117.555,0,0,1,4.372-23.715Q14.921,59.062,7.484,67.735Z" transform="translate(12.6)" fill="#ff4133"/></g></g></g></svg>