<svg xmlns="http://www.w3.org/2000/svg" width="232.583" height="246.12" viewBox="0 0 232.583 246.12"><g transform="translate(-53.008 -126.872)"><g transform="translate(53.008 153.645)"><g transform="translate(25.693)" opacity="0.5"><path d="M23.941,8.606C25.484,6.406,28.346.82,30.517.034c1.4-.506.991,4.73,1.008,5.729a83.694,83.694,0,0,1-.773,11.532c-.837,6.908-3.573,13.061-7.325,18.94-1.931,3.025-4.2,6.088-7.333,7.975-1.444.869-3.181,1.015-4.607,1.764-1.661.872-.756.167-1.5,1.9-1.039,2.4-1.372,5.5-1.853,8.066C5.921,67.707.576,129.921,1.5,141.892c.082,1.061-1.4,1.315-1.471.019-.393-6.868,3-54.432,4.718-69.986S8.2,42.629,9.937,37.248c2.11-6.529,5.92-14.38,9.092-20.469A72.4,72.4,0,0,1,23.941,8.606Z" transform="translate(41.479 32.302)" fill="#a2b7d1"/><path d="M36.859.836c4.014-2.947,8.359,2.615,4.726,5.562A3.638,3.638,0,0,1,36.3,6.09c-.767.935-1.485,1.913-2.175,2.739-2.1,2.517-4.089,5.093-5.988,7.73-3.944,5.478-7.325,11.265-10.859,16.946C13.786,39.112,10.326,44.748,7.165,50.5,4.487,55.368.917,61.1,0,66.439c1.391-11.325,6.67-22.211,12.957-32.2C19.192,24.342,26.348,13.527,36,5.713A3.419,3.419,0,0,1,36.859.836Z" transform="translate(40.01 116.36)" fill="#c1dee2"/><path d="M.7.011C2.948.451,6.619,5.532,8.47,7.468a72.513,72.513,0,0,1,6.078,7.322A123.839,123.839,0,0,1,25.3,32.331,163.046,163.046,0,0,1,37.269,63.472,128.461,128.461,0,0,1,40.9,83.9c.13,1.293,1.485,11.264-.468,11.533-1.757.242-1.215-7.571-1.3-8.634A138.033,138.033,0,0,0,31.31,51.839c-.87-2.462-1.678-5.477-3.069-7.693-1-1.6-.007-1.039-1.768-1.643-1.512-.519-3.234-.392-4.782-1.027-3.363-1.379-6.055-4.056-8.415-6.749-4.587-5.233-8.221-10.894-10.116-17.6A84.738,84.738,0,0,1,.609,5.837C.47,4.846-.744-.272.7.011Z" transform="translate(0 89.564)" fill="#647088"/><path d="M5.161,5.035a203.548,203.548,0,0,1,19.9,47.117c2.72,9.891,4.622,20.041,6.512,30.118,2.926,15.6,5.694,31.2,6.482,47.083.792,15.972,2.359,34.393-2.871,49.776,2.612-15.618.125-32.242-.315-47.957-.21-7.5-.82-14.931-1.62-22.389-.776-7.235-2.045-14.435-3.226-21.613q-.863-5.244-1.795-10.475c-.184-1.041-.261-4.129-.921-4.84s-4.055-1.007-5.119-1.533a27.484,27.484,0,0,1-5.944-4.148A47.481,47.481,0,0,1,7.5,55.233C2.067,46.164-.106,35.1,0,24.591c.021-2.039,3.3-24,1.984-24.3Q2.107.149,2.213,0,3.709,2.5,5.161,5.035Z" transform="translate(4.405)" fill="#d6e4f6"/><path d="M60.509,1.427c.131-.188.98-1.5.552-1.414.871-.17-1.2,1.444.972.454C61,1.44,61.6,2.7,61.612,4.014a31.771,31.771,0,0,1-.734,6.318,43.322,43.322,0,0,1-2.945,9.548A42.787,42.787,0,0,1,43.871,37.137C40.9,39.2,37.993,39.9,34.607,40.843c-2.139.6-2.308,1.7-3.444,3.78-2.363,4.323-4.685,8.629-6.769,13.1-2.489,5.336-4.9,10.677-7.184,16.107C9.533,92.118,3.284,111.066,0,130.675-.079,119.12,2.595,107.218,5.967,96.2a205.739,205.739,0,0,1,9.065-23.418,29.631,29.631,0,0,0,2.43-6.29c.246-1.435-.506-2.815-.85-4.327a45.276,45.276,0,0,1-.067-18.4c1.3-6.526,5.054-9.555,11.406-10.479,2.323-.338,5.276-.214,7.406-1.2,2.321-1.079,3.278-4.624,4.6-6.9A93.846,93.846,0,0,1,52.547,8.055a40.848,40.848,0,0,1,4.307-3.962C57.818,3.323,59.853,2.375,60.509,1.427Z" transform="translate(40.377 56.528)" fill="#d6e4f6"/><path d="M.81,2.1A1.835,1.835,0,0,1,2.626,0H25.17a1.835,1.835,0,0,1,1.816,2.1L25.244,13.918a7.341,7.341,0,0,1-7.263,6.27H9.816a7.341,7.341,0,0,1-7.263-6.27Z" transform="translate(27.03 174.723)" fill="#d6e4f6"/></g><g transform="translate(0 145.906)"><path d="M0,0C0,11.9.939,21.546,13.543,21.546S27.087,11.9,27.087,0" transform="translate(8.619 27.087)" fill="#f2f2f2"/><path d="M25.912,19.662A24.913,24.913,0,0,0,24.674,22.1a33.4,33.4,0,0,1,.339-5.158c.44-2.979,1.111-5.943,1.742-8.9C27.208,5.917,27.179,2.1,28.9.4c.472-.366.586.352.586.664.006.066,0-1.273-.459-1.039-2.723,1.406-3.6,5.828-4.477,8.042a42.6,42.6,0,0,0-2.8,9.9,22.168,22.168,0,0,0-.188,2.546c-.093-.227-.179-.455-.276-.681a45.961,45.961,0,0,0-6.337-10.6C14.3,8.415,6.112.363,5.471,1.6a.85.85,0,0,0,.4.446c.012.013.012.006.005-.014C6.355,2.8,7.722,4,8.148,4.684A51.4,51.4,0,0,1,10.9,10c1.788,3.767,3.447,7.572,5.055,11.386.374.888.765,1.771,1.163,2.652C13.012,18.114,7.537,12.74,0,9.664c2.574,1.31,4.262,3.773,6,5.66,2.1,2.275,4.305,4.49,6.406,6.763,2.478,2.681,5.393,5.5,7.776,8.472a89.352,89.352,0,0,1,5.936,14.793c-.567-1.76-.044-4.193-.142-6.04a40.806,40.806,0,0,0-.484-4.384,9,9,0,0,1,.656,1.925c-.1-1.025-.223-2.044-.352-3.057.33-.949.653-1.834.872-2.563a65.848,65.848,0,0,1,4.272-11,98.194,98.194,0,0,1,5.712-9.759c.98-1.479,1.974-2.953,2.962-4.429A23.327,23.327,0,0,1,41.776,2.6C35.958,7.923,29.6,13.28,25.912,19.662" transform="translate(0)" fill="#f2f2f2"/></g></g><g transform="translate(76 116)"><g transform="translate(51)"><g transform="translate(39.429 21.332)"><path d="M0,52,5.7,24.568C2.524,20.715.37,15.993.73,10.7c1.037-15.244,21.607-11.89,25.607-4.2s3.526,27.21-1.645,28.585c-2.062.548-6.456-.795-10.927-3.575L16.572,52Z" transform="translate(-0.429 -0.332)" fill="#b28b67"/></g><path d="M-60.5,17.324a5.438,5.438,0,0,1-1.132-2.106,21.317,21.317,0,0,1-.725-2.392c-.365-1.63-.368-3.505.794-4.771a5.463,5.463,0,0,1,3.621-1.569,6.648,6.648,0,0,1,2.567.326c.818.269,1.523.805,2.315,1.138a10.376,10.376,0,0,1,1.221-5.1A5.075,5.075,0,0,1-48.062.387a7.488,7.488,0,0,1,4.6.928c.358.194.713.4,1.052.627a2.947,2.947,0,0,0,.913.5c.372.087.556-.128.8-.4a6.061,6.061,0,0,1,.94-.847A5.534,5.534,0,0,1-34.574.306a4.815,4.815,0,0,1,2.113,1.528c.482.633.826,1.637,1.491,2.078.282.187.482-.061.739-.244.386-.275.754-.579,1.145-.847a5.242,5.242,0,0,1,1.779-.805c.932-.216,2.219-.165,2.485,1.056a5.045,5.045,0,0,1-.009,1.411c-.044.635-.091,1.269-.146,1.9A13.751,13.751,0,0,1-25.162,7.8a2.077,2.077,0,0,0-.092.974c.135.315.757.136,1.023.147a4.04,4.04,0,0,1,1.538.338,1.656,1.656,0,0,1,.931.862,1.55,1.55,0,0,1,.026.81,2.419,2.419,0,0,0,.049.832c.705-.348,3.15-1.12,3.457.145a1.981,1.981,0,0,1-.309,1.253A10.858,10.858,0,0,1-19.678,14.9a15.512,15.512,0,0,1-3.034,2.946,1.991,1.991,0,0,1,.519,3.334,2.462,2.462,0,0,1-1.81.525,4,4,0,0,0-.748-.059,1.788,1.788,0,0,1-.339.114,10.078,10.078,0,0,1-2.775-.353A9.148,9.148,0,0,1-32.1,19.193a1.3,1.3,0,0,0-.979-.45c-.364,0-.721.1-1.085.113a7.81,7.81,0,0,1-2.723-.76,10.292,10.292,0,0,1-.892,3.626c-.4.886-1.244,1.015-2.07,1.093-2.642.249-5.294-.029-7.939-.025,2.561.579,5.207.818,7.745,1.5,1.147.308.271,1.082-.219,1.619a9.33,9.33,0,0,0-1.825,3.131,5.518,5.518,0,0,0-5.429-2.209c-2.168.555-3.694,3.489-2.308,5.6.8,1.224,2.258,1.7,3.467,2.223-.943.982-1.171,2.431-1.739,3.653a2.613,2.613,0,0,1-1.3,1.493,1.519,1.519,0,0,0-.686.273c-.226.234-.28.5-.569.7a3.209,3.209,0,0,1-3.979-.307,2.6,2.6,0,0,1,.088-3.408c-1.23-.513-3.469-1.173-2.981-3.09-2.664-.177-9.133-4.5-5.557-7.662-1.962-1.11-3.765-3.823-2.5-6.214.971-1.841,3.228-2.665,5.08-2.762" transform="translate(92.794 10.872)" fill="#191847"/></g><g transform="translate(0 135.732)"><g transform="translate(0 31.268)"><g transform="translate(39.83)"><path d="M20,0H75.949L83.28,89.878H0Z" fill="#c5cfd6"/><path d="M20,0H37.21l10.3,89.878H0Z" fill="rgba(0,0,0,0.1)"/></g></g><path d="M41.373,102.6c-.725-9.169-2.072-40.912-.724-55.6.569-6.2,1.182-12.1,1.785-17.343C29.5,52.929,8.34,86.982,8.34,86.982L0,83.168s9.824-32.4,16.111-45.74C23.287,22.195,30.016,9.149,32.848,4.554,37.3-2.673,45.057-.151,49.155,4.224,55.12.639,65.127,5.245,65.12,10.372c-.021,15.34-14.008,87.64-14.738,92.211a4.96,4.96,0,0,1-4.977,3.9A3.87,3.87,0,0,1,41.373,102.6Z" transform="translate(129.833 10.821)" fill="#b28b67"/><path d="M.023,81.056,3.708,7.488C6.376-5.232,28.987.678,28.98,7.5c-.017,15.477-9.292,68.94-9.3,73.551Z" transform="translate(158.131 5.82) rotate(20)" fill="#1f28cf"/><g transform="translate(134.795 74.354) rotate(30)"><path d="M3.227,3.623a1.451,1.451,0,0,0-1.85.944L0,9.274A43.7,43.7,0,0,0,.65,14.8H41.333S42.919,9.712,39.5,9.306s-5.677-.733-5.677-.733L14.917.393a.73.73,0,0,0-.961.373L12.741,3.627A16.717,16.717,0,0,1,7.6,5.059Z" transform="translate(0.721 13.2)" fill="#e4e4e4"/></g><g transform="translate(167 92.268)"><path d="M3.24,3.739a1.448,1.448,0,0,0-1.858.977L0,9.591a46.6,46.6,0,0,0,.653,5.722H41.5s1.592-5.268-1.838-5.688-5.7-.759-5.7-.759L14.976.395a.724.724,0,0,0-.964.386l-1.22,2.963A16.4,16.4,0,0,1,7.63,5.226Z" transform="translate(0.724 13.68)" fill="#e4e4e4"/></g><path d="M123.667,26.407c0,19.256-9.137,64.174-9.143,68.414l-19.658.015s4.316-60.119,3.061-60.767-51.453,5.016-66.508,5.016C9.71,39.086.729,25.384,0,0H43.006C51.762.938,97.437,10.159,114.4,13.328,121.661,14.685,123.667,21.1,123.667,26.407Z" transform="translate(73.293)" fill="#2b44ff"/></g><g transform="translate(7 60)"><path d="M39.367,37.293l11.041-6.071s2.324-8.85,5.556-8.906c.834-.389.516,1.311.4,3.011-.118,1.674-.043,3.348,1.514,3.028,3.138-.646,10.8-6.347,12.115-5.19,1.952,1.713.212,6.971-1.839,9.586-3.834,4.889-7.007,6.561-14.852,8.75C47.147,43.217,40,48.383,40,48.383ZM0,25.667,25.136,11.888A62.2,62.2,0,0,1,37.491.313c1.24-.518,3.407-.832,1.38,2.77s-4,7.481-2.965,8.591c.454.487,1.205.461,2.01.435,1.027-.033,2.14-.066,2.831.968q1.233,1.844-13.2,5.825L9.282,35.639Z" transform="translate(114.881 5.283)" fill="#997659"/><path d="M3.986,4.612A61.721,61.721,0,0,0,38.2-.005L41.343,11.61C31.465,18.736,18.362,23.8,7.916,21.844A9.608,9.608,0,0,1,3.986,4.612Z" transform="translate(97.982 23.949) rotate(-9)" fill="#2026a2"/><path d="M24.2,103.272c-8.842-1.15-17.069-2.3-21.849-1.358C-5.843,75.273,10,64.447,10.016,47.4,10.03,28.734,25.006,0,27.209,0H47.3c1.108,14.249,6.683,29.953,11.261,45.468,14.6,3.318,47.028-8.231,47.028-8.231s8.186,16.95,7.568,24.168c-18.875,9.868-35.05,14.268-48.377,14.558.423,7.914-.539,15.446-3.772,22.327-2.419,5.149-9.112,6.688-17.28,6.688A158.706,158.706,0,0,1,24.2,103.272Z" transform="translate(55.923 0)" fill="#1f28cf"/></g></g></g></svg>