<svg xmlns="http://www.w3.org/2000/svg" width="240" height="292" viewBox="0 0 240 292"><g transform="translate(-56 -80)"><g transform="translate(90 80)"><g transform="translate(0 48.786)"><ellipse cx="13.581" cy="7.19" rx="13.581" ry="7.19" transform="translate(2.237 3.835)" fill="#f2f2f2"/><path d="M31.635,15.977A15.9,15.9,0,0,0,15.817,0,15.9,15.9,0,0,0,0,15.977" fill="#dde3e9"/></g><rect width="2" height="51" transform="translate(15)" fill="#dde3e9"/></g><g transform="translate(118.759 80)" opacity="0.7"><g transform="translate(0 36.109)"><ellipse cx="10.151" cy="5.802" rx="10.151" ry="5.802" transform="translate(1.672 3.095)" fill="#f2f2f2"/><path d="M23.646,12.894C23.646,5.773,18.353,0,11.823,0S0,5.773,0,12.894" fill="#dde3e9"/></g><rect width="2" height="43" transform="translate(11.241)" fill="#dde3e9"/></g><g transform="translate(258 271.116)"><g transform="translate(6.911)"><rect width="12" height="3" rx="1.5" transform="translate(6.089 42.884)" fill="#afb9c5"/><path d="M4.547,22a4.546,4.546,0,1,1,0-9.093H6.828A56.267,56.267,0,0,0,8.971,0h1.355a48.665,48.665,0,0,0,2.142,12.907h1.985a4.546,4.546,0,1,1,0,9.093Z" transform="translate(3.089 20.884)" fill="#dde3e9"/><path d="M1.389.5S6.553,0,11.718,0,22.047.5,22.047.5l1.389,23.873s-5.859.561-11.718.561S0,24.378,0,24.378Z" fill="#c5cfd6"/></g><path d="M31.616,31V6.558H6.384V31H0V0H38V31Z" transform="translate(0 45.884)" fill="#f2f2f2"/></g><g transform="translate(56 186)" opacity="0.5"><path d="M19.887,7.149C21.169,5.322,23.547.681,25.35.029c1.162-.421.823,3.929.837,4.759a69.524,69.524,0,0,1-.642,9.579A37.428,37.428,0,0,1,19.46,30.1a19.862,19.862,0,0,1-6.091,6.625c-1.2.722-2.643.843-3.827,1.465-1.38.724-.628.139-1.25,1.576a32.77,32.77,0,0,0-1.539,6.7c-1.834,9.776-6.275,61.456-5.5,71.4.068.881-1.161,1.092-1.222.016-.326-5.705,2.5-45.215,3.919-58.136S6.81,35.411,8.254,30.941a121.02,121.02,0,0,1,7.552-17A60.14,60.14,0,0,1,19.887,7.149Z" transform="translate(34.455 26.832)" fill="#69a1ac"/><path d="M30.618.695c3.334-2.448,6.943,2.172,3.926,4.62a3.022,3.022,0,0,1-4.393-.256c-.637.777-1.234,1.589-1.807,2.275-1.746,2.09-3.4,4.231-4.974,6.421-3.277,4.55-6.085,9.358-9.02,14.077-2.9,4.658-5.772,9.339-8.4,14.115C3.727,45.994.762,50.754,0,55.19c1.156-9.408,5.541-18.45,10.763-26.744,5.18-8.226,11.124-17.209,19.143-23.7A2.84,2.84,0,0,1,30.618.695Z" transform="translate(33.236 96.658)" fill="#c1dee2"/><path d="M.583.009C2.449.374,5.5,4.6,7.036,6.2a60.235,60.235,0,0,1,5.049,6.082,102.871,102.871,0,0,1,8.934,14.571,135.44,135.44,0,0,1,9.94,25.868,106.711,106.711,0,0,1,3.016,16.968c.108,1.074,1.234,9.357-.389,9.58-1.46.2-1.009-6.289-1.079-7.172a114.661,114.661,0,0,0-6.5-29.039,33.1,33.1,0,0,0-2.549-6.39c-.832-1.326-.006-.863-1.468-1.365-1.256-.431-2.686-.326-3.972-.853-2.793-1.145-5.03-3.369-6.99-5.606a37.674,37.674,0,0,1-8.4-14.62A70.39,70.39,0,0,1,.506,4.849C.39,4.026-.618-.226.583.009Z" transform="translate(0 74.399)" fill="#69a1ac"/><path d="M4.288,4.182A169.083,169.083,0,0,1,20.821,43.321c2.26,8.217,3.84,16.648,5.41,25.018,2.431,12.961,4.73,25.92,5.384,39.111.658,13.267,1.959,28.569-2.385,41.348,2.17-12.974.1-26.783-.262-39.837-.175-6.232-.681-12.4-1.346-18.6-.645-6.01-1.7-11.991-2.679-17.954q-.717-4.356-1.491-8.7c-.153-.865-.217-3.43-.765-4.021s-3.368-.837-4.253-1.273A22.831,22.831,0,0,1,13.5,54.968a39.442,39.442,0,0,1-7.265-9.087C1.717,38.347-.088,29.153,0,20.427.021,18.733,2.745.491,1.651.24q.1-.116.187-.24Q3.081,2.08,4.288,4.182Z" transform="translate(3.659)" fill="#89c5cc"/><path d="M50.264,1.185c.108-.156.814-1.244.459-1.175.724-.142-1,1.2.808.377-.856.809-.362,1.859-.351,2.947a26.391,26.391,0,0,1-.61,5.248,35.986,35.986,0,0,1-2.446,7.932A35.542,35.542,0,0,1,36.443,30.849c-2.466,1.71-4.883,2.292-7.7,3.079-1.777.5-1.917,1.416-2.86,3.14-1.963,3.591-3.892,7.168-5.623,10.88C18.2,52.38,16.189,56.818,14.3,61.328,7.918,76.521,2.728,92.26,0,108.55c-.067-9.6,2.154-19.485,4.955-28.635a170.9,170.9,0,0,1,7.53-19.453A24.614,24.614,0,0,0,14.5,55.237c.2-1.192-.42-2.338-.706-3.594a37.61,37.61,0,0,1-.056-15.285c1.079-5.421,4.2-7.937,9.475-8.7,1.93-.281,4.383-.178,6.152-1,1.928-.9,2.723-3.841,3.819-5.732A77.956,77.956,0,0,1,43.65,6.691,33.932,33.932,0,0,1,47.228,3.4C48.028,2.76,49.719,1.973,50.264,1.185Z" transform="translate(33.541 46.957)" fill="#89c5cc"/><path d="M.807,1.747A1.525,1.525,0,0,1,2.315,0H21.042a1.525,1.525,0,0,1,1.508,1.747L21.1,11.562A6.1,6.1,0,0,1,15.07,16.77H8.288a6.1,6.1,0,0,1-6.033-5.209Z" transform="translate(22.319 145.139)" fill="#c1dee2"/></g><g transform="translate(116.364 239)"><path d="M0,0,33.209,70.8l23.277,52.183H69.759L37.762,0Z" transform="translate(69.592)" fill="#1f28cf"/><path d="M53.263,0c-.361,24.293-.1,57-.941,58.514S0,93.021,0,93.021l6.841,9.373s61.12-31.757,64.245-35.988S89.91,23.241,98.078,0Z" transform="translate(8.121)" fill="#2b44ff"/><g transform="matrix(0.545, 0.839, -0.839, 0.545, 19.319, 85.138)"><path d="M0,10.5.492,0H10.82C18.165,5.25,30,8.5,30,8.5v2H11.311l-6.393-1v1Z" transform="translate(0 9.5)" fill="#191847"/></g><g transform="translate(124.847 110.741)"><path d="M0,11.686.691,0H15.2C25.512,5.843,42.132,9.46,42.132,9.46v2.226H15.886L6.907,10.573v1.113Z" transform="translate(0 10.573)" fill="#191847"/></g></g><g transform="translate(167.075 116)"><path d="M9.861,33.026c0-.048-.005-.1-.008-.143A11.609,11.609,0,0,1,0,21.407v-9.8A11.608,11.608,0,0,1,21.956,6.349,8.016,8.016,0,0,1,22.7,8.094c1.793,5.587,4.667,22.446,2.124,24.932Z" transform="translate(26.308 13.928)" fill="#191847"/><g transform="translate(27.855 15.991)"><path d="M0,37.656,4.262,17.791A13.975,13.975,0,0,1,.545,7.751C1.32-3.288,16.687-.86,19.676,4.712s2.634,19.7-1.229,20.7c-1.541.4-4.823-.576-8.163-2.589l2.1,14.833Z" transform="translate(0 0)" fill="#b28b67"/></g><path d="M15.021,32.259H.061a26.867,26.867,0,0,1,.084-4.68A12.866,12.866,0,0,1,.9,24.395a12.053,12.053,0,0,1,2.637-3.9c1.843-2.032,3.749-4.134,3.749-10.744l.385-.379c.368-.364.714-.706,1.061-1.016l-.017-.4A20.822,20.822,0,0,1,11.4,3.977a13.766,13.766,0,0,1,3.109-2.734A7.676,7.676,0,0,1,18.572,0a10.824,10.824,0,0,1,6.367,1.682,12.379,12.379,0,0,1,3.093,3.451l0,.005a6.058,6.058,0,0,1-2.356,3.267,21.734,21.734,0,0,1-3.872,2.1,33.9,33.9,0,0,0-3.769,1.935,2.837,2.837,0,1,0-1.788,5.04l.129,0a57.117,57.117,0,0,1,.172,9.067c-.151,2.074-.539,4.749-1.53,5.718Z" transform="translate(19.085 14.443)" fill="#191847"/></g><g transform="translate(121 167)"><path d="M19.986,52.156c-.787-1.5-1.7-2.991-4.713-2.408-5.4,1.045-10.1,4.206-14.826-.637-.582-.6-.937-2.38,1.194-3.174,5.308-1.978,13.2-5.789,14.526-7.36C18.885,35.364,36.376,0,36.376,0L47.39,2.8S25.274,39.981,23.737,42.1c-2.306,3.177-.631,9.31-.062,12.524a4.228,4.228,0,0,1-.741.07C21.233,54.693,20.654,53.424,19.986,52.156ZM141.568,33,122.14,23.3l5.238-10.729,19.168,16.25A54.52,54.52,0,0,1,159.9,35.3c.813.852,1.75,2.528-1.832,2s-7.375-.924-7.958.27,1.494,2.816.374,4.4a.47.47,0,0,1-.407.207Q148.341,42.183,141.568,33Z" transform="matrix(0.998, -0.07, 0.07, 0.998, -3.562, 50.398)" fill="#b28b67"/><path d="M2.34,36.244C-.751,30.3.295,10.126,0,2.785L6.791,0C16.257,19.567,29.069,38.341,48.1,54.377a21.77,21.77,0,0,1,8.48,1.269,2.857,2.857,0,0,1,.03,5.4q.872.636,1.76,1.266l-5.11,10.431C31.758,62.026,11.549,53.943,2.34,36.244Z" transform="translate(81.002 1.296)" fill="#69a1ac"/><path d="M0,71.248s29.944,3.289,47.138,0c1.42-.272,1.358-6.394.7-8.066-10.256-26.037-17-45.1-17-63.182-2.823,1.474-9.88.442-9.88.442C8.309,19.079,2.5,40.463,0,71.248Z" transform="translate(57.147 1.081)" fill="#191847"/><path d="M38.594,75.408a2.854,2.854,0,0,1-.857-2.58l.33-1.876a2.86,2.86,0,0,1,2.476-2.342q.319-1.428.549-2.838c1.2-7.435-.647-14.734-.8-21.909-8.5,7.576-18.8,20.785-27.485,43.681L.815,84.015q.687-2.554,1.44-5.028c-1.388-.765-3.025-4.4-1.856-5a14.02,14.02,0,0,1,3.928-1.341C21.972,22.214,58.162,0,58.162,0h7.222c-2.127,28.117,27.24,89.5,17.043,141.927-7.981,1.782-17.409.461-27.614-.859-13.9-1.8-29.233-3.6-44.333,2.435C11.454,122.39,30.977,97.589,38.594,75.408Z" transform="translate(14.844 0)" fill="#89c5cc"/><path d="M5.856,0,2.58,10.074l6.6,7.552L3.215,23.561l14.424,24.7L0,23.61l5.856-5.984L0,10.952Z" transform="translate(69.773 0.635)" fill="rgba(0,0,0,0.1)"/><path d="M3.81,31.749a2.54,2.54,0,1,1,2.54,2.54A2.54,2.54,0,0,1,3.81,31.749Zm-.635-14.6a2.54,2.54,0,1,1,2.54,2.54A2.539,2.539,0,0,1,3.175,17.144ZM0,2.54A2.54,2.54,0,1,1,2.54,5.08,2.54,2.54,0,0,1,0,2.54Z" transform="translate(80.641 53.337)" fill="rgba(0,0,0,0.4)"/></g></g></svg>