<svg xmlns="http://www.w3.org/2000/svg" width="221.503" height="231.392" viewBox="0 0 221.503 231.392"><g transform="translate(-72.373 -148.894)"><g transform="translate(92 171.754)" opacity="0.346"><path d="M201.809,68.121C198.936,37.674,44.8-21.092,16.183,7.746S-5.19,97.244,54.777,111.1,204.682,98.568,201.809,68.121Z" transform="translate(0 35.352)" fill="#dde3e9"/></g><g transform="translate(72.373 157.288)"><path d="M39.073,13.047l-8.637-8.64a3.721,3.721,0,0,0-5.264,0l-22.994,23A7.442,7.442,0,0,0,0,32.671V185.044" transform="translate(13.768 2.878)" fill="none" stroke="#cbcbcb" stroke-miterlimit="10" stroke-width="4"/><rect width="28" height="3" rx="1.5" transform="translate(0 187.713)" fill="#afb9c5"/><g transform="translate(80.393 21.893) rotate(135)"><path d="M0,0H30.7a0,0,0,0,1,0,0V13.024a15.35,15.35,0,0,1-15.35,15.35h0A15.35,15.35,0,0,1,0,13.024V0A0,0,0,0,1,0,0Z" transform="translate(0 2.587)" fill="#c5cfd6"/><ellipse cx="15.35" cy="3.024" rx="15.35" ry="3.024" transform="translate(0.083 0)" fill="#f2f2f2"/></g></g><g transform="translate(108.373 219.827)"><g transform="translate(6.118 0)"><path d="M17.964.1C13.855,9.86,6.871,16.643,3.171,26.8A57.648,57.648,0,0,0,.008,46.065c-.03,3.641.033,7.285.05,10.926C.075,60.542.171,64.071.473,67.6c.3,3.547.642,7.052.792,10.621.116,2.781.17,6.015,1.112,8.552.75,2.017,2.655,2.313,3.16-.134a19.558,19.558,0,0,0,.215-4.276c-.04-1.793-.144-3.584-.2-5.377C5.34,69.79,5.618,62.594,5.473,55.4c-.142-7.032-1.045-14.057-.045-21.043a49.073,49.073,0,0,1,5.336-15.471c2.32-4.569,4.845-9.027,6.413-14.224A25.044,25.044,0,0,0,18.141.014Q18.031-.037,17.964.1Z" transform="translate(20.002 0)" fill="#c1dee2"/><path d="M15.827.287a7.824,7.824,0,0,0-1.818,2.295c-.684,1.054-1.488,2.006-2.171,3.061-1.426,2.2-2.678,4.534-3.978,6.823a44.685,44.685,0,0,0-5.268,14A150.7,150.7,0,0,0,.968,42.335C.54,47.937.109,53.58.052,59.2a60.257,60.257,0,0,0,.141,7.7c.188,1.558.891,2.885,2.476,2.872,3.366-.027,4.946-3.755,5.607-6.813A57.413,57.413,0,0,0,9.288,49.071C9.1,43.519,8.138,38.05,7.721,32.52,7.28,26.665,7.529,20.913,9.542,15.4c1.017-2.786,2.2-5.5,3.257-8.272a26.741,26.741,0,0,1,1.43-3.486A33.455,33.455,0,0,0,16.28,0Z" transform="translate(23.258 19.071)" fill="#89c5cc"/><path d="M.31.241,0,0A30.776,30.776,0,0,0,1.245,3.415a27.867,27.867,0,0,1,.8,3.319c.584,2.642,1.258,5.225,1.809,7.89,1.091,5.273.885,10.955.169,16.805C3.352,36.956,2.283,42.474,1.773,48a76.077,76.077,0,0,0-.2,13.68c.274,2.969,1.171,6.514,3.615,6.215,1.151-.141,1.751-1.526,1.993-3.089.388-2.511.47-5.151.621-7.648.338-5.573.405-11.13.472-16.646.063-5.2.237-10.512-.111-15.585A47.765,47.765,0,0,0,5.278,11.55c-.79-2.144-1.543-4.339-2.43-6.382-.426-.98-.946-1.847-1.372-2.826A6.047,6.047,0,0,0,.31.241Z" transform="translate(0 7.442)" fill="#c1dee2"/><path d="M10.6.14c-.445-.747-1.425,1.717-1.574,2.027q.095-.231.19-.462A20.511,20.511,0,0,0,7.023,6.388c-.5,1.668-.924,3.369-1.391,5.048-.875,3.151-2,6.212-2.8,9.392a30.562,30.562,0,0,0-.781,9.348A79.86,79.86,0,0,1,2.14,40.218a29.243,29.243,0,0,1-.979,4.6C.807,46.352.527,47.9.108,49.417c-.1-.2-.108.462-.108.512a3.177,3.177,0,0,0,.177,1.053,2.837,2.837,0,0,0,1.787,1.959c1.608.459,3.1-1,3.619-2.547A42.263,42.263,0,0,0,7.091,43.4,32.971,32.971,0,0,0,7.4,36.952c-.19-4.27-.963-8.483-1.172-12.752C6,19.553,6.918,15.187,7.689,10.664A39.529,39.529,0,0,1,9.137,4.249a18.03,18.03,0,0,1,1.074-2.359C10.439,1.447,10.9.659,10.6.14Z" transform="translate(27.444 35.352)" fill="#c1dee2"/><path d="M5,16.6c.184,5.324.5,10.607,1.212,15.874.724,5.375,1.556,10.732,2.253,16.113A108.981,108.981,0,0,1,9.76,64.463c-.07,3.911.579,10.528-3.765,12.459-4.4,1.955-5.344-6.394-5.632-9.15A103.2,103.2,0,0,1,.256,51.827c.276-5.456.736-10.884,1.307-16.32.634-6.038,1.131-12.1,1.53-18.158.2-3,.246-5.985.192-8.981A22.44,22.44,0,0,1,4.346,0L4.5.114" transform="translate(20.002 11.629)" fill="#69a1ac"/><path d="M2.287,2.77c.791,1.153,1.589,2.294,2.336,3.515a18.538,18.538,0,0,1,2.91,7.738c.761,6.537.151,13.6,0,20.335a10.639,10.639,0,0,1-.4,4.022c-.492,1.188-1.412,2.094-2.289,2.089-1.877-.011-1.591-4.607-1.594-6.63-.006-3.546.392-7.128.358-10.671A74.086,74.086,0,0,0,2.856,12.8,59.7,59.7,0,0,0,.591,3.167C.453,2.748-.539-.494.4.065" transform="translate(0 42.329)" fill="#89c5cc"/><path d="M4.995,0C6.229,0,6.221,6.152,6.258,6.942c.134,2.852.1,5.7.187,8.556A155.1,155.1,0,0,0,7.794,34.154c.5,3.312,1.087,6.609,1.715,9.9s1.475,6.589,1.889,9.927a69.521,69.521,0,0,1,.118,9.706,84.971,84.971,0,0,1-.578,9.711c-.1.794-.228,1.585-.359,2.374a18.819,18.819,0,0,1-.231,2.1,2.128,2.128,0,0,1-2.43,1.172c-2.322-.424-3.806-3.34-4.6-5.47A51.216,51.216,0,0,1,1.238,65.03,74.625,74.625,0,0,1,.119,55.178,165.789,165.789,0,0,1,.7,35.031c.268-3.726.577-7.435,1.05-11.137.471-3.687,1.076-7.357,1.47-11.055.286-2.687.568-5.378.753-8.075C4.014,4.121,4.051,0,4.995,0" transform="translate(5.582 10.233)" fill="#69a1ac"/><path d="M.028,54.953c.2-6.459,2.8-34.831,3.388-42.641C3.564,10.356,4.986,2.216,5.17,0c.5.626.457,10.377.452,12.618-.006,2.216.269,4.4.41,6.6.144,2.249,3.469,31.3,3.9,33.459.858,4.3,1.433,8.712,1.876,13.108.432,4.285,1.1,8.806.525,13.113a13.166,13.166,0,0,1-.685,2.878c-.37.984-.623,1.894-.92,2.924a5.947,5.947,0,0,1-2.668,3.8c-2.721,1.4-4.182-1.775-4.923-4.542A74.062,74.062,0,0,1,.842,70.4,143.658,143.658,0,0,1,.028,54.953" transform="translate(12.094 0)" fill="#89c5cc"/></g><g transform="translate(0 74.173)"><rect width="42" height="42" rx="2" transform="translate(5 0)" fill="#fff"/><rect width="2" height="53" rx="1" transform="translate(47 4)" fill="#c5cfd6"/><rect width="2" height="53" rx="1" transform="translate(24 4)" fill="#c5cfd6"/><rect width="2" height="53" rx="1" transform="translate(4 4)" fill="#c5cfd6"/></g></g><g transform="translate(137 132)"><g transform="translate(48)"><g transform="translate(31.541 18.295)"><path d="M0,43,4.721,20.316A16.247,16.247,0,0,1,.6,8.851C1.462-3.755,18.485-.982,21.8,5.38s2.918,22.5-1.361,23.638c-1.707.453-5.343-.657-9.043-2.956L13.715,43Z" transform="translate(0.459 -0.295)" fill="#b28b67"/></g><path d="M11.787,26.227c-.941-2.835-1.3-11-1.386-13.406a3.544,3.544,0,0,0-.42-.025,3.492,3.492,0,0,0-2.445,5.992c-.81,1.141-1.717,2.333-2.757,3.562C.871,20.01-2.028,13.162,1.792,6.583A8.636,8.636,0,0,1,8.061.84a10.174,10.174,0,0,1,6.664-.49c3.928.336,7.436,1.532,8.43,2.242,0,3.711-.721,4.812-6.875,4.715a11.341,11.341,0,0,0-3.886,3.969c.009.12.822,11.175,4.253,11.175,3.449,0,6.375-2.185,7.889-2.185,1.1,0,.857,1.378.125,2.4-.6.843-3.541,1.655-3.541,2.962,0,.738.74.737,1.384.735.5,0,.937,0,.937.336,0,1.282.408,3.692-1.821,3.692C19.364,30.389,12.9,29.569,11.787,26.227Z" transform="translate(31.435 16.894)" fill="#191847"/></g><g transform="translate(0 109)"><path d="M0,0,21.149,74.066l15.43,54.591H47.833L31.436,0Z" transform="translate(74.667 0)" fill="#191847"/><path d="M25.969,0C25.48,38.175,23.812,59,23.3,62.464S15.018,88,0,128.657H11.659q28.679-58.51,32.019-66.193C45.9,57.342,52.775,36.521,63.125,0Z" transform="translate(43.042)" fill="#2f3676"/><g transform="translate(42 116)"><path d="M0,12.225.583,0h12.25c8.713,6.113,22.75,9.9,22.75,9.9v2.329H13.417L5.833,11.061v1.164Z" transform="translate(0 11.061)" fill="#191847"/></g><g transform="translate(110 116)"><path d="M0,12.225.583,0h12.25c8.713,6.113,22.75,9.9,22.75,9.9v2.329H13.417L5.833,11.061v1.164Z" transform="translate(0 11.061)" fill="#191847"/></g></g><g transform="translate(13 48)"><path d="M18.692,49.149c-.867-1.3-1.838-2.591-4.553-1.766-4.833,1.47-8.821,4.8-13.607.84-.589-.487-1.084-2.08.786-3.008,4.66-2.313,11.5-6.544,12.565-8.1C16.059,33.922,28.643,0,28.643,0L38.975,1.5S22.34,37.518,21.139,39.6c-1.8,3.119.317,8.55,1.146,11.426a3.509,3.509,0,0,1-.969.151C19.983,51.174,19.369,50.161,18.692,49.149ZM121.416,25.173l-17.848-8.889,4.813-9.837,17.609,14.9a50.13,50.13,0,0,1,12.264,5.94c.747.782,1.608,2.318-1.683,1.833s-6.775-.847-7.31.247,1.372,2.581.343,4.037a.432.432,0,0,1-.373.19Q127.639,33.594,121.416,25.173Z" transform="translate(2.662 45.138)" fill="#b28b67"/><path d="M0,2.662,6.193,0C16.732,20.811,31.46,40.55,54.559,56.291l-4.528,9.645C30.111,56.456,11.42,49.373,2.68,33.3-.253,27.9.387,9.387,0,2.662Z" transform="matrix(0.996, 0.087, -0.087, 0.996, 74.721, 0.452)" fill="#c5cfd6"/><path d="M0,63.046s27.509,2.911,43.3,0c1.3-.24,1.511-2.42.905-3.9C34.788,36.107,28.327,16,28.327,0,25.734,1.3,19.25.391,19.25.391,7.634,16.883,2.294,35.8,0,63.046Z" transform="translate(52.5 0.991)" fill="#323337"/><path d="M13.179,125.819C14.432,99.689,24.085,68.442,34.085,41.91c-7.379,7.327-16,19.608-22.961,40.054L0,79.113C11.336,30.364,44.548,5.223,50.993.735L51.181.3h.445c.3-.2.458-.3.458-.3l-.017.3h4.841c1.127,6.616,4.682,96.209,15.658,125.517Z" transform="translate(16.796 -0.302)" fill="#dde3e9"/></g></g></g></svg>