<svg xmlns="http://www.w3.org/2000/svg" xmlns:xlink="http://www.w3.org/1999/xlink" width="243.798" height="226.012" viewBox="0 0 243.798 226.012"><defs><clipPath id="a"><path d="M120.568,223.557a90.436,90.436,0,0,0,87.044-65.831c2.192-7.791,36.186-33.477,36.186-41.968C243.8,65.87,170.5,0,120.568,0S-33.4,202.1,10.6,223.557c26.276,12.818,43.512-28.9,47.017-25.5A90.152,90.152,0,0,0,120.568,223.557Z" transform="translate(0)" fill="none"/></clipPath><clipPath id="b"><path d="M45.357,10.583c.387-1.114,3.024-4.566-1.673-7.854-.844-.591-2.239,0-3.447-.375C39.328,2.074,39.022.807,37.98.586,36.9.356,35.721,1.4,34.5,1.3,33.75,1.248,32.6.083,31.816.02,30.424-.092,29.16,1.22,27.8,1.3,27.014,1.353,26.1.087,25.318.02c-1.9-.163-3.636.723-5.313.992-1.545.248-2.264,3.412-3.4,4.16-3.572,2.347-6.371,3-9.27,5.412-3.446,2.863-4.106,4.993-5.533,6.9S-.51,26.115.322,30.423c.491,2.541,1.771,9.482,4.63,12.169,3.913,3.678,11.874,4.768,12.581,4.277,3.273-2.273,10.61-14.843,15.813-19.285C37.173,24.317,42.959,17.485,45.357,10.583Z" transform="translate(0 0)" fill="#2b3eec"/></clipPath></defs><g transform="translate(-71.304 -103.736)"><ellipse cx="90.409" cy="90.329" rx="90.409" ry="90.329" transform="translate(101.464 146.634)" fill="#aaddc7"/><g transform="translate(71.304 103.736)" clip-path="url(#a)"><g transform="translate(-14.598 5.53)"><g transform="translate(109.876)"><g transform="translate(11.863 7.855)"><path d="M0,65.287,7.4,30.846C3.271,26.009.479,20.08.946,13.438,2.29-5.7,28.956-1.491,34.143,8.169s4.571,34.163-2.132,35.89c-2.674.689-8.369-1-14.166-4.489l3.639,25.718Z" transform="translate(0 0)" fill="#784931"/></g><g transform="translate(0 0)"><path d="M45.357,10.583c.387-1.114,3.024-4.566-1.673-7.854-.844-.591-2.239,0-3.447-.375C39.328,2.074,39.022.807,37.98.586,36.9.356,35.721,1.4,34.5,1.3,33.75,1.248,32.6.083,31.816.02,30.424-.092,29.16,1.22,27.8,1.3,27.014,1.353,26.1.087,25.318.02c-1.9-.163-3.636.723-5.313.992-1.545.248-2.264,3.412-3.4,4.16-3.572,2.347-6.371,3-9.27,5.412-3.446,2.863-4.106,4.993-5.533,6.9S-.51,26.115.322,30.423c.491,2.541,1.771,9.482,4.63,12.169,3.913,3.678,11.874,4.768,12.581,4.277,3.273-2.273,10.61-14.843,15.813-19.285C37.173,24.317,42.959,17.485,45.357,10.583Z" transform="translate(0 0)" fill="#2b3eec"/><g transform="translate(0 0)" clip-path="url(#b)"><path d="M9.124,19.685C11.277,12.055,13.373.278,13.373.278L16.018,0s-4.379,18.459-6.79,25.851c-1.629,5-2.956,9.228-4.1,12.692,2.35-5.2,5.372-11.872,8.105-18.716C16.175,12.466,19.491.971,19.491.971h2.66s-6.286,17.9-9.457,25c-3.4,7.612-5.842,13.393-7.788,17.274A210.21,210.21,0,0,0,18.527,20.207c3.04-5.958,7.16-18.246,7.16-18.246L28.162,3.02s-6.236,15.552-9.635,21.691C11.139,38.05,4.084,46.1,1.618,48.383c-.427.4-.569.487-.467.285a.1.1,0,0,1-.075-.061,6.472,6.472,0,0,1-.519.689c-.2.225-.338.332-.429.332C-.933,49.629,4.8,34.985,9.124,19.685Z" transform="translate(13.855 -1.32)" fill="rgba(0,0,0,0.2)"/></g></g></g><g transform="translate(0 147.373)"><path d="M93.02,0c-17.1,13.946-10.544,136.288-11.685,137.828C80.574,138.854,0,155.269,0,155.269l2.323,9.47S96.58,160.1,102.07,153.1c7.861-10.017,19.4-112.068,19.4-112.068Z" transform="matrix(0.574, -0.819, 0.819, 0.574, 51.058, 76.198)" fill="#b28b67"/><path d="M0,151.556l4.091,15.252c46.844,5.4,77.721-1.247,88.586-11.585S112.123,43.459,112.123,43.459L81.692,0C40.978,30.719,65.3,131.343,64.256,133.645S38.513,137.757,0,151.556Z" transform="matrix(0.574, -0.819, 0.819, 0.574, 56.491, 66.972)" fill="#2f3676"/><g transform="translate(180.427 141.355) rotate(20)"><path d="M4.474,5.033A2,2,0,0,0,1.908,6.381L0,13.106A64.242,64.242,0,0,0,.9,21H57.3s2.2-7.268-2.538-7.848-7.87-1.047-7.87-1.047L20.68.419a1,1,0,0,0-1.332.532L17.663,5.039s-4.385,2.046-7.127,2.046Z" transform="translate(1 19)" fill="#e4e4e4"/></g><path d="M91.845,0,45.525,111.1,0,205.03H10.741L128.253,0Z" transform="translate(24.523)" fill="#997659"/><g transform="translate(21.483 177.976)"><path d="M4,4.536a1.791,1.791,0,0,0-2.3,1.206L0,11.756a57.406,57.406,0,0,0,.807,7.06H51.294s1.968-6.5-2.272-7.019-7.045-.936-7.045-.936L18.511.41a.9.9,0,0,0-1.192.476L15.811,4.541s-3.925,1.83-6.379,1.83Z" transform="translate(0.895 16.958)" fill="#e4e4e4"/></g><path d="M0,185.518l23.866,4.472C42.32,162.883,119.547,51.74,128.015,0H74.883C46.606,37.4,17.59,157.963,0,185.518Z" transform="translate(28.634 0)" fill="#5c63ab"/></g><g transform="translate(21.483 53.467)"><path d="M28.455,103.984c-1.221-2.051-2.608-4.1-6.823-3.055-7.521,1.867-13.9,6.656-20.913.2-.862-.794-1.494-3.276,1.447-4.549,7.325-3.172,18.146-9.111,19.9-11.417q3.59-4.717,22.25-53.856L62.66,34.938Q34.989,86.46,32.981,89.552c-3.012,4.637-.2,13.135.836,17.611a5.656,5.656,0,0,1-1.277.16C30.333,107.322,29.449,105.653,28.455,103.984Zm146.991-76.6,32.434-14.232a76.856,76.856,0,0,1,16.46-12.9c1.582-.5,4.285-.655,1.4,3.554s-5.728,8.766-4.576,10.24,4.491-.153,5.809,2.246q1.32,2.4-16.881,5.739L185.8,40.639Z" transform="translate(0 42.034)" fill="#b28b67"/><path d="M0,2,7.6,0C25.814,14.808,36.09,53.315,47.735,57.513c11.01,3.968,25.6-2.08,42.869-10.035L97.131,59.19C82.462,78.12,49.241,95.935,34.512,88.713,10.963,77.165,1.579,29.385,0,2Z" transform="matrix(0.996, 0.087, -0.087, 0.996, 112.688, 2.78)" fill="#a47d12"/><path d="M0,101.956H68.488c3.13,0,2.54-4.515,2.087-6.793-5.221-26.294-25.6-54.638-25.6-92.067L25.218,0C8.877,26.257,3.227,58.584,0,101.956Z" transform="translate(78.772)" fill="#dde3e9"/><path d="M0,126.872Q13.87,40.922,80.337,0h7.822s26.6,90.6,14.668,120.737H41.176c.976-14.7,4.1-30.246,8.387-45.4Q28.62,113.077,14.355,129.681Z" transform="translate(22.378)" fill="#fb0"/></g></g></g></g></svg>