<svg height="512pt" viewBox="-6 0 512 512" width="512pt" xmlns="http://www.w3.org/2000/svg"><path d="m500.757812 261.621094c0 138.28125-112.097656 250.378906-250.378906 250.378906s-250.378906-112.097656-250.378906-250.378906 112.097656-250.378906 250.378906-250.378906 250.378906 112.097656 250.378906 250.378906zm0 0" fill="#08c"/><path d="m96.0625 378.125h-29.636719c-8.464843 0-15.328125-6.863281-15.328125-15.332031v-265.707031c0-8.464844 6.863282-15.328126 15.328125-15.328126h29.636719c8.46875 0 15.332031 6.863282 15.332031 15.328126v265.707031c0 8.46875-6.863281 15.332031-15.332031 15.332031zm0 0" fill="#ffe49f"/><path d="m449.660156 97.085938v265.707031c0 8.46875-6.863281 15.332031-15.328125 15.332031h-289.894531l-19.894531 29.839844c-8.851563 13.28125-23.757813 21.257812-39.71875 21.257812-2.824219 0-5.113281-2.289062-5.113281-5.109375v-327.027343c0-8.464844 6.863281-15.328126 15.332031-15.328126h339.289062c8.464844 0 15.328125 6.863282 15.328125 15.328126zm0 0" fill="#fff5f5"/><path d="m407.761719 132.855469v30.65625c0 5.644531-4.578125 10.222656-10.222657 10.222656h-286.144531c-5.644531 0-10.222656-4.578125-10.222656-10.222656v-30.65625c0-5.644531 4.578125-10.222657 10.222656-10.222657h286.144531c5.644532 0 10.222657 4.578126 10.222657 10.222657zm-10.222657 61.316406h-286.144531c-5.644531 0-10.222656 4.574219-10.222656 10.21875v61.316406c0 5.644531 4.578125 10.222657 10.222656 10.222657h286.144531c5.644532 0 10.222657-4.578126 10.222657-10.222657v-61.316406c0-5.644531-4.578125-10.21875-10.222657-10.21875zm0 0" fill="#ffe49f"/><path d="m449.660156 71.535156v30.660156h-398.5625v-30.660156c0-11.285156 9.152344-20.4375 20.4375-20.4375h357.6875c11.289063 0 20.4375 9.152344 20.4375 20.4375zm0 0" fill="#02cc69"/><path d="m449.660156 71.535156v30.660156h-369.949218v-30.660156c0-11.285156 9.152343-20.4375 20.441406-20.4375h329.070312c11.289063 0 20.4375 9.152344 20.4375 20.4375zm0 0" fill="#54d680"/><path d="m94.097656 76.648438c0 6.511718-5.277344 11.789062-11.789062 11.789062-6.515625 0-11.792969-5.277344-11.792969-11.789062 0-6.515626 5.277344-11.792969 11.792969-11.792969 6.511718 0 11.789062 5.277343 11.789062 11.792969zm27.515625-11.792969c-6.511719 0-11.792969 5.28125-11.792969 11.792969 0 6.511718 5.28125 11.789062 11.792969 11.789062s11.792969-5.277344 11.792969-11.789062c0-6.515626-5.28125-11.792969-11.792969-11.792969zm39.304688 0c-6.511719 0-11.792969 5.28125-11.792969 11.792969 0 6.511718 5.28125 11.789062 11.792969 11.789062s11.792969-5.277344 11.792969-11.789062c0-6.511719-5.28125-11.792969-11.792969-11.792969zm0 0" fill="#00b96f"/><path d="m285.125 347.464844h-89.929688c-5.644531 0-10.222656-4.574219-10.222656-10.21875v-20.441406c0-5.640626 4.578125-10.21875 10.222656-10.21875h89.929688c5.644531 0 10.21875 4.578124 10.21875 10.21875v20.441406c0 5.644531-4.574219 10.21875-10.21875 10.21875zm0 0" fill="#02cc69"/><path d="m285.125 347.464844h-61.316406c-5.644532 0-10.21875-4.574219-10.21875-10.21875v-20.441406c0-5.640626 4.574218-10.21875 10.21875-10.21875h61.316406c5.644531 0 10.21875 4.578124 10.21875 10.21875v20.441406c0 5.644531-4.574219 10.21875-10.21875 10.21875zm0 0" fill="#54d680"/><path d="m223.808594 454.769531c0 8.46875-6.863282 15.332031-15.328125 15.332031-8.46875 0-15.332031-6.863281-15.332031-15.332031 0-8.464843 6.863281-15.328125 15.332031-15.328125 8.464843 0 15.328125 6.863282 15.328125 15.328125zm35.769531-15.328125c-8.46875 0-15.332031 6.863282-15.332031 15.328125 0 8.46875 6.863281 15.332031 15.332031 15.332031 8.464844 0 15.328125-6.863281 15.328125-15.332031 0-8.464843-6.863281-15.328125-15.328125-15.328125zm51.097656 0c-8.46875 0-15.332031 6.863282-15.332031 15.328125 0 8.46875 6.863281 15.332031 15.332031 15.332031 8.464844 0 15.328125-6.863281 15.328125-15.332031 0-8.464843-6.863281-15.328125-15.328125-15.328125zm0 0" fill="#50b0d6"/><path d="m295.34375 212.054688v10.222656c0 2.820312-2.285156 5.109375-5.109375 5.109375h-163.511719c-2.820312 0-5.109375-2.289063-5.109375-5.109375v-10.222656c0-2.820313 2.289063-5.109376 5.109375-5.109376h163.511719c2.824219 0 5.109375 2.289063 5.109375 5.109376zm-75.453125 30.660156h-93.167969c-2.820312 0-5.109375 2.289062-5.109375 5.109375v10.21875c0 2.824219 2.289063 5.109375 5.109375 5.109375h93.167969c2.820313 0 5.109375-2.285156 5.109375-5.109375v-10.21875c0-2.820313-2.289062-5.109375-5.109375-5.109375zm0 0" fill="#ffe59c"/><path d="m121.613281 153.292969v-10.21875c0-2.820313 2.289063-5.109375 5.109375-5.109375h93.167969c2.820313 0 5.109375 2.289062 5.109375 5.109375v10.21875c0 2.820312-2.289062 5.109375-5.109375 5.109375h-93.167969c-2.820312 0-5.109375-2.289063-5.109375-5.109375zm0 0" fill="#ffe266"/><path d="m415.679688 388.34375-46.765626 74.824219c-2 3.199219-6.664062 3.199219-8.664062 0l-46.765625-74.824219c0-11.289062 9.152344-20.441406 20.441406-20.441406h61.316407c11.289062 0 20.4375 9.152344 20.4375 20.441406zm0 0" fill="#ffe49f"/><path d="m415.679688 388.34375-33.722657 53.957031-33.726562-53.957031c0-11.289062 9.152343-20.441406 20.441406-20.441406h26.570313c11.289062 0 20.4375 9.152344 20.4375 20.441406zm0 0" fill="#fff5f5"/><path d="m415.679688 388.34375h-102.195313v-281.617188h102.195313zm0 0" fill="#fa0"/><path d="m348.230469 388.34375h-34.746094v-281.617188h34.746094zm0 0" fill="#f48c03"/><path d="m386.578125 434.910156-17.664063 28.257813c-2 3.199219-6.664062 3.199219-8.664062 0l-17.660156-28.257813zm0 0" fill="#024c67"/><path d="m415.679688 51.097656c0 16.933594-13.726563 30.660156-30.65625 30.660156h-40.878907c-16.933593 0-30.660156-13.726562-30.660156-30.660156 0-28.21875 22.878906-51.097656 51.097656-51.097656 28.222657 0 51.097657 22.878906 51.097657 51.097656zm0 0" fill="#ff393a"/><path d="m381.957031 3.035156c19.667969 7.109375 33.722657 25.941406 33.722657 48.0625 0 16.933594-13.726563 30.660156-30.65625 30.660156h-6.132813c-16.933594 0-30.660156-13.726562-30.660156-30.660156 0-22.121094 14.058593-40.953125 33.726562-48.0625zm0 0" fill="#ff6466"/><path d="m423.601562 132.855469c0 5.644531-4.574218 10.21875-10.21875 10.21875h-97.597656c-5.644531 0-10.21875-4.574219-10.21875-10.21875 0-4.851563 3.382813-8.90625 7.917969-9.949219v-71.808594h102.195313v71.808594c4.535156 1.042969 7.921874 5.097656 7.921874 9.949219zm0 0" fill="#92dff4"/><path d="m338.011719 132.855469c0 5.644531 4.574219 10.21875 10.21875 10.21875h-32.128907c-5.421874 0-10.140624-4.089844-10.511718-9.5-.355469-5.167969 3.136718-9.574219 7.894531-10.667969v-71.808594h34.746094v64.0625c0 3.675782-2.003907 7.015625-5.171875 8.878906-3.019532 1.773438-5.046875 5.058594-5.046875 8.816407zm0 0" fill="#7ed4f2"/><path d="m352.832031 81.757812v20.4375c0 5.644532-4.578125 10.21875-10.222656 10.21875s-10.21875-4.574218-10.21875-10.21875v-20.4375c0-5.644531 4.574219-10.222656 10.21875-10.222656s10.222656 4.578125 10.222656 10.222656zm33.722657-10.222656c-5.644532 0-10.21875 4.578125-10.21875 10.222656v20.4375c0 5.644532 4.574218 10.21875 10.21875 10.21875 5.644531 0 10.21875-4.574218 10.21875-10.21875v-20.4375c0-5.644531-4.574219-10.222656-10.21875-10.222656zm0 0" fill="#08c"/></svg>