<?xml version="1.0" encoding="iso-8859-1"?>
<!-- Generator: Adobe Illustrator 19.0.0, SVG Export Plug-In . SVG Version: 6.00 Build 0)  -->
<svg version="1.1" id="Capa_1" xmlns="http://www.w3.org/2000/svg" xmlns:xlink="http://www.w3.org/1999/xlink" x="0px" y="0px"
	 viewBox="0 0 512 512" style="enable-background:new 0 0 512 512;" xml:space="preserve">
<circle style="fill:#535E8A;" cx="255.998" cy="255.999" r="255.998"/>
<path style="fill:#474F70;" d="M474.405,389.611c-4.974,8.119-10.376,15.924-16.196,23.406
	c-41.608,53.498-103.977,90.049-175.009,97.551c-8.087,0.857-16.279,1.337-24.576,1.411c-0.878,0.021-1.745,0.021-2.623,0.021
	c-43.917,0-85.253-11.055-121.364-30.542c-13.176-7.105-25.652-15.329-37.313-24.555c-13.469-10.647-25.83-22.611-36.906-35.714
	c-1.526-1.808-3.03-3.636-4.503-5.486c-0.711-0.888-1.421-1.787-2.111-2.685c-5.82-7.481-11.233-15.297-16.206-23.406
	L474.405,389.611L474.405,389.611z"/>
<rect x="245.654" y="350.322" style="fill:#EDEDED;" width="126.777" height="49.455"/>
<g>
	<path style="fill:#C2C2C2;" d="M390.97,424.51H227.11c-6.646,0-9.216-8.192-4.598-12.142c0.387-0.334,0.825-0.637,1.327-0.899
		l21.807-11.692h126.787l21.807,11.692c0.502,0.261,0.94,0.564,1.327,0.899C400.186,416.318,397.616,424.51,390.97,424.51z"/>
	<rect x="245.654" y="350.322" style="fill:#C2C2C2;" width="126.777" height="19.083"/>
</g>
<g>
	<path style="fill:#EDEDED;" d="M395.568,412.369c-1.16,1.034-2.717,1.693-4.598,1.693H227.11c-1.881,0-3.438-0.658-4.598-1.693
		c0.387-0.334,0.825-0.637,1.327-0.899l21.807-11.692h126.787l21.807,11.692C394.742,411.731,395.181,412.034,395.568,412.369z"/>
	<path style="fill:#EDEDED;" d="M512,73.28v182.72c0,35.37-7.178,69.078-20.156,99.724H126.111
		c-11.065,0-20.031-8.965-20.031-20.031V73.28c0-11.065,8.965-20.031,20.031-20.031h365.858C503.035,53.25,512,62.215,512,73.28z"/>
</g>
<path style="fill:#FCC72E;" d="M493.192,73.27v220.117c0,0.669-0.543,1.223-1.223,1.223H126.111c-0.679,0-1.223-0.554-1.223-1.223
	V73.27c0-0.669,0.543-1.212,1.223-1.212h365.858C492.649,72.058,493.192,72.601,493.192,73.27z"/>
<path style="fill:#FFD367;" d="M483.38,204.675c0,35.14-14.284,66.946-37.355,89.934H266.827
	c-23.071-22.988-37.344-54.794-37.344-89.934c0-70.112,56.832-126.954,126.944-126.954S483.38,134.563,483.38,204.675z"/>
<path style="fill:#474F70;" d="M451.498,185.112h-8.146v-32.254c0-37.963-30.885-68.847-68.848-68.847
	c-37.962,0-68.847,30.885-68.847,68.847v32.254h-8.146v-32.254c0-42.454,34.539-76.994,76.994-76.994
	c42.454,0,76.994,34.539,76.994,76.994v32.254H451.498z"/>
<path style="fill:#FF4F6F;" d="M453.995,294.609H295.012c0.838-3.973,3.429-7.417,7.138-9.303l37.193-18.868l35.161-4.508
	l4.864,0.621h0.007l30.281,3.887l37.201,18.868C450.566,287.193,453.157,290.637,453.995,294.609z"/>
<path style="fill:#E33958;" d="M379.368,262.552l-30.273,3.887l-37.193,18.868c-3.708,1.885-6.308,5.33-7.145,9.303h-9.745
	c0.838-3.973,3.429-7.417,7.138-9.303l37.193-18.868l35.161-4.508L379.368,262.552z"/>
<rect x="350.645" y="239.72" style="fill:#FECD9C;" width="49.34" height="31.725"/>
<g>
	<circle style="fill:#EAB689;" cx="321.241" cy="186.305" r="15.248"/>
	<circle style="fill:#EAB689;" cx="427.768" cy="186.305" r="15.248"/>
	<path style="fill:#EAB689;" d="M363.653,239.72L363.653,239.72h-13.009l0,0h-0.001v13.415l0,0v13.273h13.009l0,0
		c0-4.494,3.743-8.107,8.232-7.896c0.867,0.041,1.741,0.062,2.619,0.062c9.196,0,17.866-2.261,25.483-6.255V239.72H363.653z"/>
</g>
<path style="fill:#FECD9C;" d="M429.435,142.78l-109.863-5.848v61.282c0,30.337,24.594,54.931,54.931,54.931l0,0
	c30.337,0,54.931-24.594,54.931-54.931V142.78H429.435z"/>
<path style="fill:#EAB689;" d="M382.331,111.952l-33.653,2.913c-5.134,0-9.866,1.713-13.663,4.594h-2.278v1.978
	c-4.126,4.098-6.682,9.775-6.682,16.051l-8.634,30.739c0,4.001-1.65,7.325,2.15,8.013v21.974c0,30.337,24.594,54.931,54.931,54.931
	l0,0c2.048,0,4.068-0.116,6.057-0.334c-27.487-3.016-48.875-26.307-48.875-54.598v-32.414c0-5.069,3.946-9.359,9.01-9.559
	c0.16-0.006,0.32-0.009,0.481-0.009l0,0c5.169,0,10.2,1.736,14.227,4.976c5.227,4.205,11.923,7.602,19.1,6.721
	c14.294-1.753,13.872-11.196,19.1-15.401c4.028-3.24,9.058-4.976,14.227-4.976h0.223c6.607,0,11.766-2.467,11.775,4.14
	c0.006,4.448,3.511,24.746,7.959,24.845c2.321,0.052,4.432-0.868,5.946-2.384c1.473-1.473-0.401-3.509-0.401-5.759l-2.004-7.511"/>
<path style="fill:#474F70;" d="M436.119,140.727v27.672c0,2.251-0.911,4.286-2.384,5.759c-1.515,1.518-3.626,2.437-5.946,2.384
	c-4.453-0.1-7.96-3.855-7.96-8.308v-4.183c0-3.314-1.343-6.311-3.515-8.483s-5.169-3.515-8.483-3.515
	c-5.169,0-10.199,1.736-14.228,4.977c-5.224,4.203-11.867,6.721-19.1,6.721c-7.23,0-13.872-2.517-19.096-6.721
	c-0.691-0.557-1.412-1.067-2.159-1.532c-0.008-0.008-0.02-0.014-0.028-0.02c-1.42-0.886-2.93-1.604-4.5-2.152
	c-2.412-0.838-4.96-1.273-7.547-1.273c-6.623,0-11.992,5.378-11.992,12.004v4.345c0,2.248-0.911,4.286-2.387,5.759
	c-1.473,1.473-3.509,2.384-5.759,2.384c-4.498,0-8.143-3.646-8.143-8.146v-27.673c0-24.23,19.64-43.872,43.87-43.872h35.487
	C416.476,96.855,436.119,116.498,436.119,140.727z"/>
<path style="fill:#323B5B;" d="M343.478,140.727c0-24.23,19.64-43.872,43.87-43.872H356.76c-24.23,0-43.87,19.643-43.87,43.872
	v27.672c0,4.5,3.646,8.146,8.144,8.146c2.251,0,4.286-0.911,5.759-2.383c1.476-1.473,2.387-3.512,2.387-5.759v-4.345
	c0-6.626,5.37-12.004,11.992-12.004c0.773,0,1.541,0.051,2.305,0.129L343.478,140.727L343.478,140.727z"/>
<path style="fill:#EAB689;" d="M362.581,183.693c-0.306,2.532-2.54,4.391-5.091,4.391h-13.252c-1.385,0-2.637-0.56-3.545-1.468
	c-1.039-1.043-1.627-2.54-1.43-4.168c0.306-2.532,2.54-4.391,5.091-4.391h13.252c1.384,0,2.637,0.56,3.545,1.468
	C362.19,180.567,362.778,182.064,362.581,183.693z"/>
<path style="fill:#FFFFFF;" d="M362.581,187.208c-0.306,2.532-2.54,4.391-5.091,4.391h-13.252c-1.385,0-2.637-0.56-3.545-1.468
	c-1.039-1.043-1.627-2.54-1.43-4.168c0.306-2.532,2.54-4.391,5.091-4.391h13.252c1.384,0,2.637,0.56,3.545,1.468
	C362.19,184.082,362.778,185.58,362.581,187.208z"/>
<path style="fill:#EAB689;" d="M408.292,178.057h-13.367c-2.769,0-5.012,2.244-5.012,5.012l0,0c0,2.769,2.244,5.012,5.012,5.012
	h13.367c2.769,0,5.012-2.244,5.012-5.012l0,0C413.305,180.301,411.061,178.057,408.292,178.057z"/>
<path style="fill:#FFFFFF;" d="M408.292,181.572h-13.367c-2.769,0-5.012,2.244-5.012,5.012l0,0c0,2.769,2.244,5.012,5.012,5.012
	h13.367c2.769,0,5.012-2.244,5.012-5.012l0,0C413.305,183.816,411.061,181.572,408.292,181.572z"/>
<path style="fill:#EAB689;" d="M412.629,168.043H390.59c-1.56,0-2.825,1.265-2.825,2.825l0,0c0,1.56,1.265,2.825,2.825,2.825h22.039
	c1.56,0,2.825-1.265,2.825-2.825l0,0C415.454,169.308,414.189,168.043,412.629,168.043z"/>
<path style="fill:#474F70;" d="M357.589,184.931c0,3.682-2.985,6.667-6.667,6.667s-6.667-2.985-6.667-6.667
	c0-1.226,0.331-2.373,0.911-3.358h11.514C357.258,182.558,357.589,183.706,357.589,184.931z"/>
<g>
	<circle style="fill:#535E8A;" cx="353.288" cy="184.832" r="2.699"/>
	<circle style="fill:#535E8A;" cx="348.325" cy="188.27" r="1.578"/>
</g>
<path style="fill:#474F70;" d="M408.276,184.931c0,3.682-2.985,6.667-6.667,6.667s-6.667-2.985-6.667-6.667
	c0-1.226,0.331-2.373,0.911-3.358h11.514C407.944,182.558,408.276,183.706,408.276,184.931z"/>
<g>
	<circle style="fill:#535E8A;" cx="403.976" cy="184.832" r="2.699"/>
	<circle style="fill:#535E8A;" cx="399.013" cy="188.27" r="1.578"/>
</g>
<path style="fill:#474F70;" d="M426.666,231.241H408.72v-5.43h17.947c4.477,0,8.12-3.643,8.12-8.12V200.45h5.43v17.241
	C440.217,225.162,434.138,231.241,426.666,231.241z"/>
<g>
	<path style="fill:#EAB689;" d="M339.995,168.043c-1.556,0-2.89,1.217-2.918,2.772c-0.029,1.585,1.247,2.879,2.825,2.879h15.484
		c6.148,0,11.132,4.984,11.132,11.132v27.58h2.806c3.604,0,6.524-2.922,6.524-6.524v-29.336c0-4.695-3.805-8.501-8.501-8.501
		h-27.352V168.043z"/>
	<path style="fill:#EAB689;" d="M383.927,221.637c-6.119,2.017-12.728,2.017-18.847,0c-1.635-0.533-3.504,0.106-4.231,1.636l0,0
		c-0.727,1.524,0.278,3.514,2.313,4.184c7.363,2.426,15.317,2.426,22.681,0c2.036-0.669,3.04-2.659,2.313-4.184l0,0
		C387.431,221.743,385.562,221.104,383.927,221.637z"/>
	<path style="fill:#EAB689;" d="M377.821,233.363h-6.635c-1.692,0-3.064,1.372-3.064,3.064l0,0c0,1.692,1.372,3.064,3.064,3.064
		h6.635c1.692,0,3.064-1.372,3.064-3.064l0,0C380.885,234.735,379.513,233.363,377.821,233.363z"/>
</g>
<g>
	<path style="fill:#E33958;" d="M347.361,256.474l24.349,10.435c2.51,1.075,3.539,4.086,2.213,6.472l-7.886,14.194
		c-1.53,2.753-5.31,3.194-7.432,0.867l-20.067-22.01c-1.85-2.029-1.526-5.216,0.695-6.83l3.604-2.621
		C344.149,256.028,345.867,255.834,347.361,256.474z"/>
	<path style="fill:#E33958;" d="M401.647,256.474l-24.349,10.435c-2.51,1.075-3.539,4.086-2.213,6.472l7.886,14.194
		c1.53,2.753,5.31,3.194,7.432,0.867l20.067-22.01c1.85-2.029,1.526-5.216-0.695-6.83l-3.604-2.621
		C404.859,256.028,403.14,255.834,401.647,256.474z"/>
</g>
<path style="fill:#474F70;" d="M443.358,162.813h-0.529c-7.398,0-13.394,5.997-13.394,13.394v17.809
	c0,7.398,5.997,13.394,13.394,13.394h0.529V162.813z"/>
<path style="fill:#55CEED;" d="M444.463,162.813L444.463,162.813c-3.845,0-6.962,3.117-6.962,6.961v30.675
	c0,3.845,3.117,6.961,6.962,6.961l0,0c7.116,0,12.883-5.768,12.883-12.884v-18.831C457.347,168.581,451.578,162.813,444.463,162.813
	z"/>
<path style="fill:#474F70;" d="M305.649,162.813h0.529c7.398,0,13.394,5.997,13.394,13.394v17.809
	c0,7.398-5.997,13.394-13.394,13.394h-0.529V162.813z"/>
<path style="fill:#55CEED;" d="M304.544,162.813L304.544,162.813c3.845,0,6.962,3.117,6.962,6.961v30.675
	c0,3.845-3.117,6.961-6.961,6.961l0,0c-7.116,0-12.883-5.768-12.883-12.884v-18.831
	C291.661,168.581,297.428,162.813,304.544,162.813z"/>
<path style="fill:#17A3BF;" d="M297.816,194.527v-18.831c0-5.879,3.938-10.833,9.319-12.38c-0.801-0.322-1.674-0.504-2.59-0.504l0,0
	c-7.116,0-12.883,5.768-12.883,12.884v18.831c0,7.116,5.768,12.884,12.883,12.884l0,0c0.916,0,1.789-0.182,2.59-0.504
	C301.754,205.36,297.816,200.405,297.816,194.527z"/>
<g>
	<circle style="fill:#55CEED;" cx="408.72" cy="228.529" r="5.974"/>
	<path style="fill:#55CEED;" d="M283.2,440.748v69.82c-8.087,0.857-16.279,1.337-24.576,1.411c-0.878,0.021-1.745,0.021-2.623,0.021
		c-43.917,0-85.253-11.055-121.364-30.542c-13.176-7.105-25.652-15.329-37.313-24.555c-13.469-10.647-25.83-22.611-36.906-35.714
		c-1.526-1.808-3.03-3.636-4.503-5.486l37.616-19.09h0.01l8.976-4.566l17.753-2.278l37.512-4.807l7.649,0.982l32.402,4.159h0.01
		l15.203,1.943l8.955,4.566l0.021,0.01l49.476,25.098C278.676,425.346,283.2,432.702,283.2,440.748z"/>
</g>
<path style="fill:#17A3BF;" d="M165.43,385.943l-45.16,5.789l-2.445,0.313l-21.671,10.992h-0.01l-35.725,18.15
	c-1.526-1.808-3.03-3.636-4.503-5.486l37.616-19.09h0.01l8.976-4.566l17.753-2.278l37.512-4.807L165.43,385.943z"/>
<g>
	<rect x="120.267" y="350.05" style="fill:#EAB689;" width="77.562" height="49.869"/>
	<circle style="fill:#EAB689;" cx="74.055" cy="266.093" r="23.969"/>
	<circle style="fill:#EAB689;" cx="241.495" cy="266.093" r="23.969"/>
	<path style="fill:#EAB689;" d="M244.123,197.669l-172.694-9.193v96.329c0,47.688,38.659,86.347,86.347,86.347l0,0
		c47.688,0,86.347-38.659,86.347-86.347v-87.136H244.123z"/>
</g>
<path style="fill:#FD8B59;" d="M181.989,125.48h-48.422c-39.336,0-70.49,33.234-67.951,72.488l6.746,104.304
	c1.124,17.389,9.772,33.424,23.682,43.918l0,0c8.835,6.664,20.388,8.541,30.877,5.014l13.94-4.686c10.977-3.69,22.859-3.69,33.836,0
	l13.94,4.686c10.49,3.526,22.043,1.65,30.877-5.014l0,0c13.911-10.494,22.557-26.529,23.682-43.918l6.746-104.304
	C252.479,158.715,221.326,125.48,181.989,125.48z"/>
<path style="fill:#FD7034;" d="M107.405,197.967l6.75,104.301c1.128,17.397,9.77,33.426,23.677,43.927
	c0.418,0.313,0.846,0.627,1.285,0.909l-12.204,4.106c-3.479,1.17-7.084,1.745-10.668,1.745c-7.189,0-14.305-2.32-20.208-6.76
	c-13.908-10.501-22.549-26.53-23.677-43.927l-6.75-104.301c-2.539-39.257,28.62-72.484,67.96-72.484h41.796
	C136.025,125.483,104.866,158.711,107.405,197.967z"/>
<path style="fill:#17A3BF;" d="M214.604,406.243c-36.928,12.015-76.728,12.015-113.656,0c-5.929-1.929-8.96-8.506-6.665-14.304
	c1.457-3.679,2.913-7.358,4.37-11.037c2.104-5.316,7.968-8.078,13.414-6.336c29.727,9.504,61.691,9.504,91.419,0
	c5.446-1.741,11.309,1.021,13.414,6.336c1.457,3.679,2.913,7.358,4.37,11.037C223.565,397.737,220.533,404.315,214.604,406.243z"/>
<path style="fill:#474F70;" d="M258.624,484.633v27.345c-0.878,0.021-1.745,0.021-2.623,0.021
	c-43.917,0-85.253-11.055-121.364-30.542c-13.176-7.105-25.652-15.329-37.313-24.555h133.568
	C246.211,456.902,258.624,469.315,258.624,484.633z"/>
<path style="fill:#535E8A;" d="M258.624,509.178v2.8c-0.878,0.021-1.745,0.021-2.623,0.021c-43.917,0-85.253-11.055-121.364-30.542
	h96.255C246.211,481.457,258.624,493.87,258.624,509.178z"/>
<g>
</g>
<g>
</g>
<g>
</g>
<g>
</g>
<g>
</g>
<g>
</g>
<g>
</g>
<g>
</g>
<g>
</g>
<g>
</g>
<g>
</g>
<g>
</g>
<g>
</g>
<g>
</g>
<g>
</g>
</svg>
