<svg xmlns="http://www.w3.org/2000/svg" width="23.203" height="22.81" viewBox="0 0 23.203 22.81"><defs><style>.a{fill:#919bb0;}</style></defs><g transform="translate(0)"><path class="a" d="M3.85,2.471a3,3,0,1,0,3,3A3,3,0,0,0,3.85,2.471Z" transform="translate(-0.769 -2.471)"/><path class="a" d="M108.369,2.471a3,3,0,1,0,3,3A3,3,0,0,0,108.369,2.471Z" transform="translate(-96.802 -2.471)"/><path class="a" d="M214.579,8.471a3,3,0,1,0-3-3A3,3,0,0,0,214.579,8.471Z" transform="translate(-194.376 -2.471)"/><path class="a" d="M3,111.949a3,3,0,1,0-3-3A3,3,0,0,0,3,111.949Z" transform="translate(0 -97.531)"/><path class="a" d="M107.525,111.949a3,3,0,1,0-3-3A3,3,0,0,0,107.525,111.949Z" transform="translate(-96.026 -97.531)"/><path class="a" d="M213.733,111.949a3,3,0,1,0-3-3A3,3,0,0,0,213.733,111.949Z" transform="translate(-193.609 -97.531)"/><path class="a" d="M3.739,209.108a3,3,0,1,0,3,3A3,3,0,0,0,3.739,209.108Z" transform="translate(-0.669 -192.298)"/><path class="a" d="M108.264,209.108a3,3,0,1,0,3,3A3,3,0,0,0,108.264,209.108Z" transform="translate(-96.705 -192.298)"/><path class="a" d="M214.477,209.108a3,3,0,1,0,3,3A3,3,0,0,0,214.477,209.108Z" transform="translate(-194.283 -192.298)"/></g></svg>