<svg xmlns="http://www.w3.org/2000/svg" width="22" height="22" viewBox="0 0 22 22"><defs><style>.a{fill:#333753;}.b,.d{fill:none;}.b{stroke:#333753;stroke-width:1.5px;}.c{stroke:none;}</style></defs><g transform="translate(-1091.074 -21.074)"><path class="a" d="M17.375,11.25c2.246,0,3.791,1.154,3.791,2.812a2.7,2.7,0,0,1-1.683,2.462c-1.042.56-1.4.971-1.4,1.68v.438H16.01l-.018-.477a2.276,2.276,0,0,1,1.414-2.44c1.012-.56,1.438-.915,1.438-1.6s-.719-1.192-1.611-1.192a1.473,1.473,0,0,0-1.605,1.364H13.5C13.542,12.509,14.967,11.25,17.375,11.25ZM15.8,20.756A1.294,1.294,0,1,1,17.082,21.9,1.214,1.214,0,0,1,15.8,20.756Z" transform="translate(1085.086 15.326)"/><g class="b" transform="translate(1091.074 21.074)"><circle class="c" cx="11" cy="11" r="11"/><circle class="d" cx="11" cy="11" r="10.25"/></g></g></svg>